<mxfile host="app.diagrams.net" modified="2023-05-31T01:59:35.011Z" agent="Mozilla/5.0 (Windows NT 10.0; Win64; x64) AppleWebKit/537.36 (KHTML, like Gecko) Chrome/113.0.0.0 Safari/537.36" etag="RfnfounOnFMdfMLcoyR-" version="21.3.6" type="google">
  <diagram id="5gYIzIBRhbSrQfjR_-JT" name="PÃ¡gina-1">
    <mxGraphModel dx="1434" dy="739" grid="1" gridSize="10" guides="1" tooltips="1" connect="1" arrows="1" fold="1" page="1" pageScale="1" pageWidth="827" pageHeight="1169" math="0" shadow="0">
      <root>
        <mxCell id="0" />
        <mxCell id="1" parent="0" />
        <mxCell id="peTAdikNJGKYyjmQaAhJ-1" value="" style="edgeStyle=orthogonalEdgeStyle;rounded=0;orthogonalLoop=1;jettySize=auto;html=1;fontSize=8;" parent="1" source="peTAdikNJGKYyjmQaAhJ-2" edge="1">
          <mxGeometry relative="1" as="geometry">
            <mxPoint x="275.47" y="185.03999999999996" as="targetPoint" />
          </mxGeometry>
        </mxCell>
        <mxCell id="peTAdikNJGKYyjmQaAhJ-2" value="" style="shape=image;verticalLabelPosition=bottom;labelBackgroundColor=default;verticalAlign=top;aspect=fixed;imageAspect=0;image=data:image/png,iVBORw0KGgoAAAANSUhEUgAAAkoAAADqCAYAAABdoGpeAAAgAElEQVR4nO3de3hU9YH/8c/kNpP7BQKBENCgYgQrF30odR/EdbVUqTdYqmirKK60skW7FettXSui4q2uoYUVxdoWW1ZaUfFaq/Jbq1S5tSCCEgkhGJKQTCbJZCa3+f1xMpOZJAdymTMzhPfreXge5sw53+/3HHie+Tzf27H5fD6fAAAA0E1ctBsAAAAQqwhKAAAAJghKAAAAJghKAAAAJghKAAAAJghKAAAAJghKAAAAJghKAAAAJghKAAAAJghKAAAAJghKAAAAJghKAAAAJghKAAAAJghKAAAAJghKAAAAJghKAAAAJghKAAAAJghKAAAAJghKAAAAJghKAAAAJghKAAAAJghKAAAAJghKAAAAJghKAAAAJghKAAAAJghKAAAAJghKAAAAJghKAAAAJghKAAAAJghKAAAAJghKAAAAJghKAAAAJghKAAAAJghKAAAAJmIuKHn3rtd9c6eq8LQzdMPL1dFuDgAAOIFZG5Qq1uuG085QYY9/HtXWrufXvqM7bi/RzNWbVbL3Mz333aGWNi9i2qr10eolmjN9Use9T9VFVy7Wii310W6ZpO1a1tO/RVSUaPXMSbpm3cEBlVK1fqEKl28PU5sAACeyBMtrmP6ANq+erdxenFr1wXpVXXOPpmV0HIi3smER4t6uZVfeI9dNj+pX7yxXrt047C3dra1t0W1a7MnXtJt+rIJJvfnfAgCA9WJq6K1s7yaNHztqYIXsXas5q2KnN2HXmiX68oaVenh2USAkSZJ9TJGmFaZHr2Exya7xs+fr24X2Y58KAEAExFRQCov6cm2ti3Yj/Eq09d18zTx3gOEPAABExeALSjHHJa832m0AAAD9ERNBaetyY4L3nNXS6qv9k70Xal1F0EkVm7V6yTxNnWh8P3HuEq3+OGhVnH/i+NVrpNXzOieNd0zqrVq/UDesN1tFZz6huerDNbr16ukq6piEPWfJGn1U1ds7K9Tkb3u1+g+b1eus1FavXa89qh/ONFb+FU6crhuWv6Yv3V3a1c/7GbCOienX+Nt32lRdNH+pfrPdfIVi1fa1um/+LE30n3/Lo3plr7eHe6jWugVd/t23PGr8G7bVa9f6pYEJ8UXT5+m+9SW9f64AAPRDTASlyUs+U8nez/TSAmnBi8bfS/au1Ny8jhPK1+uGuWtl/8Eqbd5ufL991Tx5n7pEt77RsXIsb7ae2/uZSl6cLy1Y21HGZypZMrHf7Spbv1Cz1tl10y83affez1Syd7Oe+16zHp+1RG/V9q6M8d9/VHP//mPNuec1lR1z8rZXWx+/Xj/7x1TdtcFY+Vey5R3ddcZm/ejKVdoV7cnf7u1adsn12pA9X7/a2NG+vZv16tJZ8q65Ujes775arWz9Qs1a49VlD72m7R3nv710lupWLFTxP3obc1zaWny7NmRfr9+9t00lez/T7neWavw7V+uHPdQ5KBYBAABigvVBadO9mtrT9gC9Xb7dtlsrblyv859/St+fEDT5OXuibvnlvfIuX2tNgNi9Sjf+Ybp+98Q8jc/uPJwx5WY9d69Xy9bu7l05KUW65bcbdVfuWl30rfla8aF5z4vrjXt1g3uxXrpzugr885nj7Tpl1gN68rvrVfxGNLcTqNdb99ws713r9fDsImUEhRF7/kQteOJ5nf+HhVoR/FgCz3C+JucFHc8u0veXL1bGx5t7V/Xa27Vh0lO6659Hye6v116ouQ/dK3vxRu3qcnpuwViNH5HRtRQAAPrM+qA0/QFt9vfuBP/pZU+P9+P1Kv7mQs0t7OHL7Av1vfPW6/294W2y5NVHL63UtEWzdUoPvRMZF87WjJc2dfuBNhU/VNMWr9Xm52epbPmFmjh/jba6up50UBvW7NN//GC6elrzNf471+vgXz5Wt8sipfRVPXNwsRZMN1mRFl+ouYu+qeJXOwPw1lef07TFPT9D2Sdq7g1Te1d39g2a21O92RN1fsE27aro/lVuCkEJADBwMTH0djRf7tykaWee0WN4kOwaNTZdW/aEewfvEm39y1SNP80kFNhH6ZTsbdrX67lKhoyi2Xr4j5v0uwu364YLF+uV8qAvXbu1Zfs3Nb6nQChJ+aM0+S+f6cu+VRk2rs+2q+qCSSo4yjn2sUWavHefjMdSol0fT9IUs2coyRHfy20AzivSKT2XICX1rggAAPrD+g0nB8hbd1DvPz5dhXeanzPjobDXqrryTXp8+hn6mek50/Vwf4b84tM1ft5TetW+UBctf00znpqlDElyu+TSGs05bc1RLp6vy/pRZTh43S6NHXqMjSDjFRRoXSrbOVbjw7F3ZEqGSVAGAMBaMR+U7JmjtOCFt3XXNwdYULxUVe+S1JvXotiVmT9fv/vz7Zpm0cTgglnzNPfOTdq6fJZm2CWlZCjjmw/ogxdmH7XXJqBP9zNw9pQM7TtQdfT62hSyCs2e4pXLK0U85Uy5Xc9NiXCdAIBBKeaH3gpGT9RHX5QMuJzcgrHaddBkrMxVpcqQA6N0yqSP9WXpgKs1Z8+QXXbZ/VE1Y5ROLdutfb1cCNa3+xm4jHETlfHuNpUd5RzX3zfr4DlndLyuZqwm/PMm7frC/PzK6oH/uwIAYKWYD0oZ/zxbk3+3Xh+5TU7oOvyVV6hpFVXdJz2fOlGXvr29xxVyX25Yo1dCjqRrxuxJ+s3R9j8a6Eq7nZv11neKND7QY1WkS2/6TC9sOMoLYYPr7NP9hEHhRbopZ61+87HJE2kr0YY1B7VgZlHHgXRNu3CinnlpU8/P0L1J6341sJffAgBgtZgPSrJP1V0PSsuuflTvlwf95LZ5VfbhGt169arQjRWHjtIpH27W1o5gFdgVO2O6fnD5q7pt2SZV+cNFW712rb9Xq1Nma0HXas+9XQ/HL9echzapLPiX3n1QH61eojkre7O9wXatWLhK75dUyxuo06uyD1fpmh9t0y1LOuYndSj43nLN/Ms8/XDtbrmCApC3ardeWT5ft74aNGm9j/czcEN16b2L5Xponn62vkv7yjdrxYIf66/zluv7Y4KaeNGP9fPae7o9Q1fJa1r2k20av3h62FspSV+unqWiha+pj3PtAQDoJnr7KJ12hpZt6V0R9im366VHi/TXZbM7dnc+QxMvWajHd4/VotU3a3LIyVO14L+k4vMnaeLU6bpmnX94x67Ji57X/SNe0w/P79jd+fzbtcE+X/fPHttTrZq8ZK2ePHOzll0WtAv1Lf+tXYUL9dzC3mxvUKRL56brvcdv1ne/1XHf35qtn21I0qJ1KzU3v8vp8aM0d8Uf9QP3Gt3Q0cbCidM1579ek+eCR/WLy4PnB/X1fo5mjeb05t8o/0I9/OJTmlnbpX3LNqlgyYv61eVd3mkXP0qXPrFRD5+2Sbdd2HH+1Fm64yXpsuWLdT4r+AEAMc7m8/l80W4ETkxl6+brvqRH9dzlkZmQDgBAX8X+0BsGqXp99nG5powjJAEAYhdBCdFR8qqe+Wy2ZpwW7YYAAGCOoATrbF+vZeu3qyx4xWKbV2UfPqU5V7+m8x+7PmjVHwAAsYc5SrBOW7W2vvw7vfDSer21pVpeSfa8Is2YNU83/WB26ItyAQCIQQQlAAAAEwy9AQAAmCAoAQAAmCAoAQAAmCAoAQAAmCAoAQAAmCAoAQAAmCAoAQAAmCAoAQAAmCAoAQAAmCAoAQAAmCAoAQAAmCAoAQAAmCAoAQAAmCAoAQAAmEiIdgOOprVdammT2tqj3RIAABBp8XFSYryUEMVunZgKSrVuydnkU71HamyWWtui3SIAABBtCfFSapKU7pCykm3KTolc3Tafz+eLXHXdNXilwy6fKhsIRgAA4NgS4qVhadLwDJvS7NbWFbWg1OCVymp9qm6IRu0AAGAwGJomFWRbF5iiEpS+OuLTwdqev3M1SXVNRpBqapG8rcxRAgDgRBQfJ9kTpOREKc0uZSZLGck9nzsqWzp5iC3sbYhoUGrwSl9U+tTgDT3uaZEqXFJVvZScJI0ZIo3OtmlYuvFQkhKk8N86AACIVT5Jza1G50llvXSg1qfSI1JTs5SbLuVlSI7E0GvS7NKpw8LbuxSxoFTdIO057FN7UG0tbdKBGuMBTMiXzh5thCMAAICeVNZLnx7waWe5NCxdGp1jrIzzi7NJ44bbNDQtPPVFJChV1hshKdhhl1RSbQSkC8bZZI+p9XcAACCWeVuld/cYgalwqDQ8I/T7ccPD0/lieVCqbpB2V4RWsa/KmH80a4JNBTlW1g4AAAazshrptZ0+JSdKY3NDvyvKG3jPkqVBqcEr7TgYOty2+2tj3tHcs23MOwIAAAPmk7TuU5/qmqSiEZ3H42zSWaMGNmfJ0r0uv6jsHpKGpUvfIyQBAIAwscnIFsPSjazh1+4zsshAWBaUvjoSurptX5XRk3T5RCISAAAIv8sn2pSZbGQOvwavkUn6y5Kg1OBVyD5Jh13GnKS5ZxOSAACAdeaebVNTi5E9/A7WqtvWRL1lSVAqq+1Mbi1txuq2WRMYbgMAANayycgcJdVGBvELziZ9Efag1OBVyGtJDtQYWwCwug0AAERCQY6RPQ7UdB6rbuhfr1LYg9JhV2di87QYeyhdMI6+JAAAEDkXjLOpst7IIn7BGaW3wh6UKoN6kypcRqILx2aShaedMfBCAADACcGeYGSQiqC5SsEZpbfCGpRq3VJr0HhgVb3xWhIAAIBIO3u0TVX1nZ9b24ys0hdhDUrOps4uLVeT8YJb3t0GAACiYVi6kUVcTZ3HgrNKb4Q1KNV7Ov9e1ySNGRLO0gEAAPpmzBAjk/gFZ5XeCGtQamzu/HuDVxqdHdlhN6ezTjcv+om2bNtxzHM3bHxT9y19RB5PPzdWOI5t2bbjqPfel+cIAEAsG51tC1ntFpxVeiNs73prbZc+KuksausB6epzwvPmXkk6ZdwEXfP97+uTLdtCjj/wn3dqyqSzBlS2x+PVQ4/9QpdeMnPAZcU6p7NOv/39S1pw/bVyOAbw8hsAAI4DlfXSi5/4NHl057FphTYl9LKrKAzr0QzBmzpJkrfVeGVJOKWmpKj4yUdUeNIYScaP/h333K8zJ4zXooU3hreyQarWWadrr5pDSAIAnBAyk41MEqylTb0OSmEbemtr7/45KWwxrGdZWZl6ZOl9+qq0VCX7S+V01uk/7vxPlewvldQ5hHTxFVfp5kU/0Tt/+UDFK5+VZAy9Fa98Vk5nnRb/9E59smWb7v35Q4EhqeBrr7rupkCZXZXsL9VV190UqMPprDvq8eKVz4YMaW3ZtiPQpmBOZ53uW/pI4Lqu1/ZUfsn+Ui1/4unAkJrH49XyJ54OtH3Dxjd1y21LNG/+zSFt2rDxTS1/4mndt/QR3bzoJyo9UGb6HC++4qoe2wsAQCxKSug5o/SWxVHGellZmTp5zBj9Y9dunXfutMBxj8erJ4tX6t9uvE5TJp0V0vvU9fqnHnsoZOit67Ul+0u1YtWzuveO/1BWVmbgWqezTitWPatl998T6OXq6fiWbTv0ZPFK3fnTW8Nyz2b11jidptd4PF41NTXpjy/+Wg6HXcUrn9Vvf/9SoCdu646/B8oLDmf+Z3Hxdy7SZZfMlGQEtg0b3wx8BgBgsApbj1J8XPfPza09nxtuBQX53Y7t2v25JGl80emSjED0bzde16vyul47Mi9Pw3NzuwURh8OhtNRU1daGHv/gw4908pgxgRAz9uSTJEkeTx+n2pswq/fo19h11ZwrAkNu06aeHfL9P037Zkjo8vM/i29fcH7g2MUz/0V79nxxQk6EBwAcX5pbe84ovRW2HqXE+NDP9gRjOV4k9lEqKyvv9sMvSblDh/Z7Ls4nW7bpyqtDg9UF50+XgsKEw2HXbYsW6o577ldZ+aGQieWvv/WOXn/rncC5GRnpR+3x6Yuj1Xs0W7bt0L0/fyjw+eJvX9ir+ro+x5ysLDW63fJ4PMx1AgDEtLqm7m8I6ZpZjiZsQSkhTkqI79yZOznRmGludVAq2V+qr0pLde1Vc7p9V1VdLY/HG/gxP3jo616Xe/G3L+zVBPGsrEytKn5CTmedHnjkcWVnZ0mSbl5wvaVDU2b1mtmybYde2fhmYOhty7Yd+mjzp72qq+tzrHE6lZqSIofDMeD7AADASpX1RibxS4jv/URuKcz7KKUmdf49zS4dqA3LzgOmSvaX6q77lmre3Nkhc4ckY7irouJwYOjI6azT62+83atyx558kv6xc1ef9hEKHg47c3yRNr7xdo8TwAsK8gMBxems0/88+2vT8iRp31f7JRlBJ7iHqqd6c7KydLiqSocqKiRJb737nrbu+LskIyQG9wz1NiT5n+Nb774XOPb6m3/WuHGn0psEAIh5B2p9Sgv6uQrOKr0R1snc6Y7O3S8zk6XSI+EsXWp0u7XotjsCnwvyR2rlU491C0mS0eNyx08X6677lsrlqldB/kjNufIy7dn7ZbdzHQ67Lr1kpu79+UM6Z8ok3fnTW0OulRQ4HhwO/BPEy8oPSTJ6kfxDYDffeF1IW/09VOedO0133HO/Lr7iql63yX+9f6jsaPVO/6dvBer9wTXf0+SzviHJmGP00GO/0MVXXBUorzf8KwvvuOd+rVr9fKA+JnIDAI4HpUek0dmdn9P7OBgStg0nJeNFczsPdRb3yX7p2qnh2XSy8LQzVLL3swGVsWHjm5LEjzwAACeAynrpt5t9OuekzmMTRtqUndL7MsI69JadYoz9+eWmS58esHb4rbdK9pdq4xtv68zxRdFuCgAAiIBPD/iUG9RZkxCvPoUkyYJ9lIalSYc6tuHJy5C2lUkXjOs+49xqXYenJON1Jz0tgQcAAIOLt1XaWS5NKug8Niyt7+WEdehNMl6Gu62ss8h9VdKwDOni8ZF9QS4AADhxvb7Lp0qXNDa389ikAlvIxO7eCOvQm2SsdhsalNhG5xiJrqwm3DUBAAB0V1ZjZI/ROZ3HhqapzyFJsiAoSVJBdmfvUWK8VDhUem2nT7ExWwkAAAxWPhmZo3Bo6MaSwdmkLywJSml2aVTQUrzhGcZmT+s+JSoBAADrrPvUp+REI3v4jcruX2+SZFFQkqSTh4SOA47NNfZYenk7YQkAAITfy9t9qmsKnZeUZjcySX9ZFpQk6dRhNsUFta1ohLGnwR8+ZRgOAACEh09GtqisN7KGX5zNyCIDEfZVb11VN0i7K0Kr2FclNbVIsybYVJBjciEAAMAxlNUYc5KSE0N7kiSpKM8WssCsPywPSpLRi7TncGg1h11SSbU0IV+6YJwt4vssAQCA45e3VXp3j087y41FY8FzkiRp3PDwvBkkIkFJMnqW9hz2qT2otpY26UCNEaQm5Etnjw7PTQEAgMGpst7YcXtnuTQs3dgCIHh1W5zNCEkD7Unyi1hQkozNKL+o9KnBG3rc0yJVuKSqeik5SRozRBqdbYSmzGQpKUFiu0oAAE4cPknNrcZCsMp66UCtT6VHpKZm4xVpeRmSIzH0mjS7MSepvyvcehLRoOT31RGfDtb2/J2ryXgoDV5jHpO3VWprj2z7AABA9MXHGa9AS040QlBmspSR3PO5o7IHtrrNTFSCkmQEobJan6obolE7AAAYDIamGZtJhrMXKVjUgpJfg1c67PKpskFqbYtmSwAAwPEgId54we3wDOsCkl/Ug1KwWrfkbPKp3iM1NhOcAACAEYxSk6R0h5SVbFN2SuTqjqmg1FVru7EyjjlKAACceOLjjBVtCZZuj310MR2UAAAAoimKGQ0AACC2EZQAAABMEJQAAABMEJQAAABMEJQAAABMEJQAAABMEJQAAABMEJQAAABMJES7AV21tLTK1ehWo9sjj9crb3OL2traxb6YAACcOGw2m+Lj42RPSpTDbldqikMZqSlKTIxsdImZnbmPOF2qqXXJ421WelqK0lKSlexIUlJiohIS4mWz2aLdRAAAECE+n0+trW1qbmlRk6dZDe4m1Te45bAnKSc7Q0OyMiLSjqgHperaOh2urlWyPUlDsjOUmZ4WzeYAAIAYVlffoCO1LjV5mzV8aLaGZmdaWl/UgpLb41X511WKi7MpLzdHqSnJ0WgGAAA4DjW6m1RRVaP2dp/yR+QqxWG3pJ6oBKUjTpcOlB9WwYhhGppjbRIEAACDV3VNncq+rtTo/OGWDMdFPChVVNWotq5eY/KHKyXZEcmqAQDAIORu8qi0/LCyM9OVl5sT1rIjGpQqqmpUV9+gwoKREZ+1DgAABq+WllaVlB1SZnpaWMNSxPZROuJ0qbaunpAEAADCLjExQYUFI1VbV68jTlfYyo1IUHJ7vDpQflhj8ocTkgAAgCUSExM0Jn+4DpQfltvjDUuZEQlK5V9XqWDEMOYkAQAAS6UkO1QwYpjKv64KS3mWB6Xq2jrFxdlY3QYAACJiaE6m4uJsqq6tG3BZlgelw9W1YZ+BDgAAcDR5uTk6XF074HIsDUpHnC4l25PYTBIAAERUakqyku1JA57YbWlQqql1aUh2ZN7FAgAAEGxIdoZqamM0KLW0tMrjbebdbQAAICoy09Pk8TarpaW132VYFpRcjW6lp6VYVTwAAMAxpaelyNXo7vf1lgWlRrdHacxN6sbprNN9Sx+R0znwmfgAAODo0lKS1ej29Pt6y3Z/9Hi9GpKVHr7yPF499Ngv9MmWbYFjF3/7Qi1aeGPY6gAAAINLsiNJNXX9n6dkWY+St7lFSYmJYS0zNSVFxU8+otf/9Hv98cVfq6q6Whs2vhnWOgAAwOCRlJgob3NLv6+3rEepra1dCQnxVhUvh8OuSy+ZqY82fypJKl75rF5/6x1J0jlTJunOn94qh8Oukv2luuu+pXK56lWQP1KPLL1PWVmZIeffvOB6lZWVa9rUszVl0lmB3qvJk87SZZfMlMfj1X//8n8058pLVXjSmJBrg8ss2V+qFaue1fii0/XSn17RA/95p6ZMOivk/Nv+/YeWPRMAABAqISFebW3t/b8+jG0J4fP5ZLPZrCo+hNNZp9yhQ/T6n34fCDlvvfuezjt3mlaselbL7r9HhSeNCZzv74V6/U+/Dxzbsm2HPtr8aUdQMsYyjxypkSQdqqiQJI3My9OGjW+qqrpaf3zx13I47NqybYeeLF6pO396qySp/NDXmv5P3wqU3bWu4pXPqqLisJWPAwAAdLDZbPL5fP2+3rKht4E27Ficzjr9z7O/1rSpZysrK1Pfm3O5JKOnafKkszr+7lBaaqpqa50h144aOUJV1dXyBL0wLzs7S1+VlsrprNO+r/ZrzOgClR4ok9NZp9pap8aNO1Uej0eb/u+vuu7aq+Rw2CVJ44tOV2pKSiBM5Y8cofPOnRZo46b/+6sunvkvgXquvWqO8vKGW/ZcAABAp4F23FjWoxQfH6fW1jYlJoavika3W4tuuyPw2T+0JRk9N6tWPx/47uYF18vhsOu2RQt1xz33q6z8UOD8KZPO0sFDX+vKq68LDNONzMvT8Nxc1Tid2vGPXZox/Vy9v+lD1Tid+mjzp5o29WxJUlpqqnKysgL1OBx2paSkqLbWqezszuN+Xc8HAACR09rapvj4/vcLWRaU7EmJam5pCWtQ8k/mDh5Gk4yQVFZW3m24S5KysjK1qvgJOZ11euCRx5WdnaXCk8bosktm6rJLZmrDxje1+vnfatHCGzVu3Kn626dblZKSrJF5eRoyJEd/+3SrJGnsySdJkhoaG1XjdCory3jJr8fjldvt7jEk9XR+jdOphsbGsD0TAABgrrmlRfak/i8us2zozWG3q8nTbFXxIcrKylVQkC/JCC5bt+3o3p5eDMONGjlCf3n//8ntbpLDYdeZ44v0t0+M4JSVlamsrEydPGaMfv3b3weG7Xbt/lyNbrdG5uV1q9N//utv/jlw7PU3/6yG+oZw3j4AADDR5GmWw27v9/WW9SilpjhU3+DW0JxMq6oIuPaqObrjnvu1avXzyshI1+SzviHJmCPkH3aTjOG4KZPOChmm869aczjsGnvySbJJOuvM8ZKMydvp6WkaMiQnUNeihTeqeOWzuvLq6ySFrrDryYLrr9VDj/1CF19xlSRj1VtVdbUlzwEAAIRqcDcN6E0hNp9FM65bWlr1+b4DOvP0QiuKBwAAOKZ/fF6i08eO7vdUIMuG3hITE+SwJ6mOYSYAABAFdfUNctiTBjRf2rKgJEk52Rk6Utv/bcMBAAD660itSznZGQMqw9KgNCQrQ03eZjW6m6ysBgAAIESju0lN3mYNyYrhoCRJw4dmq6KqxupqAAAAAiqqajR8aPaAy7E8KA3NzlR7u0/VNXVWVwUAAKDqmjq1t/s0NHvgK+8tD0qSlD8iV2VfV8rd5IlEdQAA4ATlbvKo7OtK5Y/IDUt5EQlKKQ67RucPV2n5YbW0tEaiSgAAcIJpaWlVaflhjc4frhST/Q37KiJBSTImdmdnpquk7BBhCQAAhFVLS6tKyg4pOzN9wBO4g1m24aSZiqoa1dbVa0z+cKUkOyJZNQAAGITcTR6Vlh9Wdma68nJzjn1BH0Q8KEnSEadLB8oPq2DEsIi84gQAAAxO1TV1Kvu6UqPzh4e1J8kvKkFJktwer8q/rlJcnE15uTlKTUmORjMAAMBxqNHdpIqqGrW3+5Q/Ijdsc5K6ilpQ8quurdPh6lol25M0JDtDmelp0WwOAACIYXX1DTpS61KTt1nDh2aHZQuAo4l6UPI74nSpptYlj7dZ6WkpSktJVrIjSUmJiUpIiJfNZot2EwEAQIT4fD61trapuaVFTZ5mNbibVN/glsOepJzsDEuG2XoSM0HJr6WlVa5GtxrdHnm8XnmbW9TW1q4YayYAALCQzWZTfHyc7EmJctjtSk1xKCM1ZUAvuO1XO2ItKAEAAMSKiO2jBAAAcLwhKAEAAJggKAEAAJggKAEAAJggKAEAAJggKAEAAJggKAEAAJggKAEAAJggKAEAAJggKAEAAJggKAEAAJiI7JvljqGmUXr3c/nxFOMAAAX7SURBVJ/e2yNtPeBTuVNq8Ept7dFuWaf4OCnNLuVnSZNH23T+OOmC023KSY12ywAAQLjFxEtx39jp04r3pQ/3+ZSaJLk80W5R72U4pMZm6dyxNt0yQ/rOBFu0mwQAAMIkqkHp3c99uvtlo+eorilarQifzGSjp+nBy2264HQCEwAAx7uoBaUfrfXp5e0+NXijUbu10uzS5RNt+uU8whIAAMeziAelLyuluc+065BTcjdHsubISkmSRmZJ626K0ynDot0aAADQHxENStvKpEtXtA+KYbbeykyWXrklTpMKot0SAADQVxELSl9WSuc/cWKFJL/MZOm9n9CzBADA8SZi+yjNfebEDEmSMVF97jMxtMcBAADolYgEpR+t9emQMxI1xa5DTuM5AACA44flQendz43VbYN54nZvuJull7f79O7nhCUAAI4Xlgelu18enFsA9EeD13geAADg+GBpUHpjp7GZJDqVO43nAgAAYp+lQWnF+4Njx+1wqmsyngsAAIh9lgWlmkbj3W3o7sN9PtU0RrsVAADgWCwLSu9+brzgFt2lJolJ3QAAHAcSrCr4vT2Sy9OPC+fFyTU16HOTT3f/zKenZdOrD9t0nsunjGXBIcOmTx6WXviZT1oUpwdP7V5k3Rc+FRTLuD658/ieze06Z23P9b+wuF2LetWuvnN5jOfzr1P6cTEAAIgYy3qUth4YQI/JYZ8yFrcbf7qEkboMmz6Z1/NlTxd3XLPYpz0ywk7G4nYVFHe25YM/dZzzJ5/ypsapuEsZxSdJew5Lly3q4YW2Qe16wWXTkp7O6aUBPR8AABARlgUlq1a7bf+7T3nfsOnfB1rQ+9L2JmnMjOCDNk3N8OmFv/qkUTpqHYv2S5kZ/a+e1YAAAMQ+y4KSZXsnHfJpwwB7cyRJM6SJ8unt4BVo82zKOyg9/b60XTZdNMP0aqPnaX//e4XYWwoAgNhnWVBqG8irzYbb5HoqzvhzV/dAtGiZTxWn2vTqUYKMmfOu6Ch3prQ8ZFjPple/IW3f6ZPk09sHpYkTutQd1K6p+3uY39QHA3o+AAAgIiwLSvEDKTl4jtKynnptfDpns3Tet/req2TMUfJpT3KXHqMuPUxP7+xh+K2jXXd/IY07aWA9WgN6PgAAICIs+7lOs1tVcoe1Pn1wlIndR9c9aP37BJsyk2160N+TdYXxuafht6eLjbr706PlZ/nzAQAAA2ZZUMrPsqpkP5+++6YxsTuvP5eHBC2bLhoVtCKu48/dX5j1Wvn03b9L583s/6Ry658PAAAYKMuC0uTRAxiaCp6j9FT3JfwB7/u0wSVl9qsSI+yMmxqn4p4mdssYfqsbbuu5/rU+faD+Tyof0PMBAAARYfP5fJZs6PO/W3y6bZ2vf5tODnIZDunJuTb96xTCEgAAscyyHqULTrepsdmq0o9vjc3G8wEAALHNsqCUkyqdO5Yw0JNzx9qUkxrtVgAAgGOxdJH6LTOkzORjn3ciyUw2ngsAAIh9lgal70ywsbqri/ws47kAAIDYZ/m2hw9ebmPPoA5pduN5AACA44PlQemC0226fKJNKUlW1xTbUpKkyyfamMQNAMBxxLLtAbqa/GC7vqyMRE2x6ZRh0ta7eW8JAADHk4j9cq+7Ke6EndidmWzcPwAAOL5E7Nf7lGHSK7eceGEpM9m471OGRbslAACgryI29Ob3ZaU095l2HXJK7kG8IWVKkjQyy+hJIiQBAHB8inhQ8vvRWp9e3u5TgzcatVsrzW5M3P7lPCZuAwBwPItaUJKkdz/36e6XfSp3SnVN0WpF+GQmG/skPXg5q9sAABgMohqU/N7Y6dOK96UP9/mUmqTj6kW6GQ7j3W3njrXplhlsJgkAwGASE0HJr6bR6GV6b4+09YDR09Tgldrao92yTvFxxtBafpY0ebRN548z9ori3W0AAAw+MRWUAAAAYgmb+wAAAJggKAEAAJggKAEAAJggKAEAAJggKAEAAJggKAEAAJggKAEAAJggKAEAAJggKAEAAJggKAEAAJggKAEAAJggKAEAAJj4/2PTYihVKO3xAAAAAElFTkSuQmCC;" parent="1" vertex="1">
          <mxGeometry x="160" y="170.10000000000002" width="75" height="29.95" as="geometry" />
        </mxCell>
        <mxCell id="peTAdikNJGKYyjmQaAhJ-3" value="Login" style="text;html=1;strokeColor=none;fillColor=none;align=center;verticalAlign=middle;whiteSpace=wrap;rounded=0;fontSize=8;" parent="1" vertex="1">
          <mxGeometry x="170" y="140.0999999999999" width="49.85" height="32.81" as="geometry" />
        </mxCell>
        <mxCell id="peTAdikNJGKYyjmQaAhJ-4" value="Home com solicitaÃ§Ãµes abertas pelo mÃ©dico&amp;nbsp;" style="text;html=1;strokeColor=none;fillColor=none;align=center;verticalAlign=middle;whiteSpace=wrap;rounded=0;fontSize=8;" parent="1" vertex="1">
          <mxGeometry x="309.68" y="137.54000000000008" width="82.67" height="30" as="geometry" />
        </mxCell>
        <mxCell id="peTAdikNJGKYyjmQaAhJ-5" value="" style="edgeStyle=orthogonalEdgeStyle;html=1;verticalAlign=bottom;endArrow=open;endSize=8;strokeColor=#ff0000;rounded=0;" parent="1" edge="1">
          <mxGeometry relative="1" as="geometry">
            <mxPoint x="160.00000000000009" y="184.67000000000007" as="targetPoint" />
            <mxPoint x="100.00000000000009" y="184.67000000000007" as="sourcePoint" />
          </mxGeometry>
        </mxCell>
        <mxCell id="peTAdikNJGKYyjmQaAhJ-6" value="&lt;font style=&quot;font-size: 22px;&quot;&gt;Triagem&lt;/font&gt;" style="text;html=1;align=center;verticalAlign=middle;resizable=0;points=[];autosize=1;strokeColor=none;fillColor=none;" parent="1" vertex="1">
          <mxGeometry x="310.03000000000003" y="60" width="100" height="40" as="geometry" />
        </mxCell>
        <mxCell id="peTAdikNJGKYyjmQaAhJ-7" value="" style="edgeStyle=orthogonalEdgeStyle;rounded=0;orthogonalLoop=1;jettySize=auto;html=1;fontSize=8;" parent="1" edge="1">
          <mxGeometry relative="1" as="geometry">
            <mxPoint x="442.35" y="185.03999999999996" as="sourcePoint" />
            <mxPoint x="472.3499999999999" y="185" as="targetPoint" />
          </mxGeometry>
        </mxCell>
        <mxCell id="peTAdikNJGKYyjmQaAhJ-8" value="" style="edgeStyle=orthogonalEdgeStyle;rounded=0;orthogonalLoop=1;jettySize=auto;html=1;fontSize=8;" parent="1" edge="1">
          <mxGeometry relative="1" as="geometry">
            <mxPoint x="358.96000000000004" y="202.61" as="sourcePoint" />
            <mxPoint x="359.9200000000001" y="266.11" as="targetPoint" />
          </mxGeometry>
        </mxCell>
        <mxCell id="peTAdikNJGKYyjmQaAhJ-10" value="" style="edgeStyle=orthogonalEdgeStyle;rounded=0;orthogonalLoop=1;jettySize=auto;html=1;fontSize=8;" parent="1" target="peTAdikNJGKYyjmQaAhJ-16" edge="1">
          <mxGeometry relative="1" as="geometry">
            <mxPoint x="568.96" y="225.02999999999997" as="sourcePoint" />
          </mxGeometry>
        </mxCell>
        <mxCell id="peTAdikNJGKYyjmQaAhJ-12" value="Aprovar solicitaÃ§Ã£o&lt;br&gt;" style="text;html=1;align=center;verticalAlign=middle;resizable=0;points=[];autosize=1;strokeColor=none;fillColor=none;fontSize=8;" parent="1" vertex="1">
          <mxGeometry x="512.35" y="125.02999999999997" width="90" height="20" as="geometry" />
        </mxCell>
        <mxCell id="peTAdikNJGKYyjmQaAhJ-13" value="" style="edgeStyle=orthogonalEdgeStyle;rounded=0;orthogonalLoop=1;jettySize=auto;html=1;fontSize=8;" parent="1" target="peTAdikNJGKYyjmQaAhJ-15" edge="1">
          <mxGeometry relative="1" as="geometry">
            <mxPoint x="309.67999999999995" y="335" as="sourcePoint" />
          </mxGeometry>
        </mxCell>
        <mxCell id="peTAdikNJGKYyjmQaAhJ-15" value="" style="ellipse;html=1;shape=endState;fillColor=#000000;strokeColor=#ff0000;fontSize=8;" parent="1" vertex="1">
          <mxGeometry x="227.34999999999997" y="320" width="30" height="30" as="geometry" />
        </mxCell>
        <mxCell id="peTAdikNJGKYyjmQaAhJ-16" value="" style="ellipse;html=1;shape=endState;fillColor=#000000;strokeColor=#ff0000;fontSize=8;" parent="1" vertex="1">
          <mxGeometry x="553.88" y="290" width="30" height="30" as="geometry" />
        </mxCell>
        <mxCell id="peTAdikNJGKYyjmQaAhJ-17" value="Detalhes" style="text;html=1;align=center;verticalAlign=middle;resizable=0;points=[];autosize=1;strokeColor=none;fillColor=none;fontSize=8;" parent="1" vertex="1">
          <mxGeometry x="297.35" y="250" width="60" height="20" as="geometry" />
        </mxCell>
        <mxCell id="peTAdikNJGKYyjmQaAhJ-18" value="" style="ellipse;html=1;shape=startState;fillColor=#000000;strokeColor=#ff0000;" parent="1" vertex="1">
          <mxGeometry x="80" y="167.54" width="30" height="30" as="geometry" />
        </mxCell>
        <mxCell id="zsDj_q2tFExIkIayEKkc-1" value="" style="shape=image;verticalLabelPosition=bottom;labelBackgroundColor=default;verticalAlign=top;aspect=fixed;imageAspect=0;image=data:image/png,iVBORw0KGgoAAAANSUhEUgAAA5EAAADqCAYAAAA738EgAAAgAElEQVR4nO3dfXQV5b3//U8oPVQ9ohiwoYBCSNMj9dAA0ai4tohSkCJpTyjnwE9YEuIhrlqS+/iDAiUYHgoUfvZO8rO3oUbiEk7oD8ldE5WHIinuBdpoILnTFmuaBxSQlCSisaBplX3/MbN3Zj8ls5Ps7CS8X2tlQWbPXHPNQ2au73yvuXZU/QcfugQAAAAAgA1Rly9fJogEAAAAANgyOCoqKtJ1AAAAAAD0EwSRAAAAAADbBg8aNCjSdQAAAAAA9BNkIgEAAAAAthFEAgAAAABsI4gEAAAAANhGEAkAAAAAsI1RdQAAAAAAthFEAgAAAABsozsrAAAAAMA2MpEAAAAAANsIIgEAAAAAthFEAgAAAABsI4gEAAAAANhGEAkAAAAAsK1vB5FffqraE+V660S9Wr+MdGUAAAAAAFEul8sV6UoE86cdc/Tw0/WSpCGLClWVlaQhEa4TAAAAAFzNBndn4abidCWtdoa8XNqeU1ozpbO5mlVXWe/5re39s2pVkkaEvDYAAAAAQE/pw91Zh2vmEyt09zBJw5K0JnMOASQAAAAARFi3urO2nijSc8eafCa+q9JdTp2RJCVo7o+SNMZnudu/n6GZt3Z1rQAAAACASOn5dyIbi5XqyNJRSdIS7atZock9ugIAAAAAQKT04e6sAAAAAIC+JiJBZFNxumLjJyg2foJSi5sltam2eJPmJU1QbHySflkVbD4fF+t1tGiTHv+3FCUlTDDnTdJ3l6xUQVknXwvSWK6ClUv03SRzuaQ5enzbq6q97L3e2G1VgZf/slkni7fr8WSHbjPnTZi1RJkF5WoKsN5A29J0fEf78gkOzcsu1p9afeu40LNtCbMytPnVd/m6EwAAAAAR063RWXvG5zpTvFYPr3aqTZL0qT6xEyRV7VDC/Fy1+n3wqWqPv6rNx1/V3rQivbIywe9rQc4cyNLSjGLVWiderNehgpU6VPautv57J+t+v1iPz8/SoYvek1vry1W6rVyl+5bov/eu0N1DgxXQqpPbHtW8gvbRZ3W5WSeLsvTw7+u17/9doW+/u10PLyj0qmNr/WEV/NdhHa0r0isZ/tsFAAAAAOEW+e6sja9psyeADMGXrWrVEI2YvlDrf1GofQedKj9YpJyVMxRnzlJbsESbj/uU/O4OrwByaMIc/WhLvv67cJvWfD9BQ+sLtWpLB19b0viqUpPdAeT1ujtjm145XK7yg4VanxJrzFNfqNSVr6opSBF1zy3X/yho0t1pG7WzcJvWL0ySJ96sL9T/lbtdm5cWqnZYktK25Ou/f7FW86e0h4y1v9ymve+HsrMAAAAAoGdEPBP51nP5ahs2Q+uf36RFt19vf8Gv3Kb1JU4tus26zHDNjc3VhCEL9d2NVZLatPf4u1o/NcH8/FOV5ud6Asi4tELtezJJQ79i/H731Dma/2/bNW+xdwaw3ac6tC1LRy9L0hBN21KsnSmjzc+StGjLHt3c5tDjr7aprSxLz52YE/D7MM/Un9PcXxxWzpzhxoSpc3T3eHedpTOFhdp17ULtPLxW08zo8u6H7tK3F8zRU1WSVKXfVTZr0a3D7e8vAAAAAOgBEc9Etl0epSdfyA0tgJSkhDk+AWS7uKlz9G13+TV17RnBxt/q5QPm/69dqPUZ7QGk29C7lmv9oiAdRRt/q//zqpnZvH251nx/tM8M12vm/IXuNWvXsSDvU96+Qk/M8Q4A45KXaK7l98krH/UEkJKkr8Tq7odv8/x6tOZs4LIBAAAAIIwinomUY4nm39b5bEFdPqs/VdbrT+9W6szZeh2trtOZP9YHeFdSaqt51/zqEUn/PkN3B4wVhyhuQpIk/y6t1uXHzLxLcV/xm0UaG6tpko5KavtDnZqUoBG+89w1wdPl1mPoCN3s+eU2Jd/lG6BKY26dJOndQJUGAAAAgF4R+SAyfrx/kGVHa5UKVi7X02XNtt+nbG1qz97dPX5U6Ku0LH/m6RTFPh1yEZKkaeP9A0RvIzTkWv+pQ65jKB0AAAAAkRXxILLzgCqAtio9PX+hfmkObjo0YY4W/fsc3TN2tOJiR2jo5d/q8fuz2rOOAQz5yte6VF8AAAAAuJpFPIjsitayIk8AOWZJoX67Osn76y4uq9Ps5Ftnz0oKPDDN518GWdrSfXXy6mLt9Hsn0nf+f1LQb/kAAAAAgH4o4gPrdEXtH171/H/aVP/vS2yre1dvBVhuxPjbPPO2vVyuPwX8PspmvfXb8oDrHfGtSRpj/v9kVZ007HoN7ehnKN1PAQAAAAws/TKItDpZd857wuUqPb25KPDMt92l+e53Dc/l6ukX6/0ylmf2rtVTwb4m8rYZWmR+FaQO5OnpsuauVRoAAAAA+ql+2Z017l/nSDKykX/aslyPf5muxbeNkC6e0v95Lk+HFKsxqtcZ3wWHJGnRkwnaZX4f49Etc5TkXKgnU2YoTnU6+Gq+9pZ9qjGxo1VbH+grNGK16GdLtHdBoWp1VrvSZ+jg9IV6cr5DYzxJxybVOp0qaXLo2V/M6dqgQQAAAADQR/XLIHLod5dr6/TDWlXWJqleh7at1CH3h7FLtC8vVs/MyfIPIiXFLdymZ0+l6/Fi46XK1uNFeuq4O3M5RN/+UaH+79H5+u5qI4gcc4N3l9QhU1bo+W1n9fDKw2pVm5rKCrWqrNB/RY6knthUAAAAAOhT+md31q+M1vxfHtZ/Z8zQt2PMIG9YrGambdMre1dockej2XxltGZu2qPf5mdo5m3DzXckr1fc1DlaU3hYr2Qk6AbL7OOH++cSx3w/V1XOIm1Ns6xfkq4drm/fPkOLsrfplU0pZCEBAAAADDhRLpfLFelK9DUnt03SvALjbcm5ueXKeej6CNcIAAAAAPqG/pmJDKe2Kh084B5uJ0FTJhBAAgAAAIDbVRdENr26Xb88HmRU1S/PqjR7rQrcA746UjTr1l6rGgAAAAD0ef1yYJ1uaavT00sceibGofnpczTr1hHyjKj68qs6edE9Y6yefJL3GgEAAADA6qp7J7KpOF1Jq4N9EaRpWJLWPJ+vtNuHdDwfAAAAAFxlrrogUl9+qto3XtGu4mKd/EO9/tRovv84LFbfnjBB0+Ys1OLvJ2jEVyJbTQAAAADoi66+IBIAAAAA0GVX3cA6AAAAAICuI4gEAAAAANhGEAkAAAAAsI0gEgAAAABgG0EkAAAAAMA2gkgAAAAAgG0EkQAAAAAA2wgiAQAAAAC2EUQCAAAAAGwjiAQAAAAA2EYQCQAAAACwjSASAAAAAGAbQSQAAAAAwDaCSAAAAACAbQSRAAAAAADbCCIBAAAAALYRRAIAAAAAbCOIBAAAAADYRhAJAAAAALCNIBIAAAAAYNvg7ix8+vRpVVdXq62trafqExZDhgzRxIkTNXbs2EhXBQAAAAhJf2lzI3z6WjzTrSCyurpa9957r2666aaeqk9YfPTRRzp27Fif2ekAAACAXf2lzY3w6WvxTLe6s7a1tfWLk/mmm27iyQ0AAAD6pf7S5kb49LV4hnciAQAAAAC2EUQCAAAAAGwjiAQAAAAA2EYQCQAAAACwLaxBZOOeFEVtfMs6RUXzoxQVFaWoqJ/praBLom9rUcnyDJVciHQ9AAAAAPS2MAWRb+lnUVH6Ue1k/ZtlauOeH6nhv1xyuVw6X3RS92zsWhiZnZ2tjz/+2G/6xx9/rPXr13exzt1VrZy86vb/Ly9RSwhLt5RmKKcqHPXqeS2lu6S1uUq+uZMZq3KUGOJ+AAAACKfqvEQlJrp/wvxQ/EKJMhJzVN35nEC/EqYg8m791OVS8ZJxlmmNKqtN0dK7jN9iFvxPbVpXFnI2Mjs7W+vXr9f999/vFUh+/PHHuv/++5Wdna3s7OxubwE6cNeizgNISUrIVEVesqLDXiEAAAC7piprf4UqKipUsX+6ymaHMci7OVm5FZmaGK7ygQjpxXciG9TwB+vv4zTuh6GXkpmZqe985zuqqqryBJLuALKqqkrf+c53lJmZaaOkFpUsz1FJaUb7U6iqHM+TqYxSM3/mO+1CiXJK23Nr/hnEauUkpmr3mxs10yzX+sQrw7Js+/QM7TptKcKyzkTL06uW0gzPdL+sZVWOMkqrVbLcf7nA5QXY/k7LqlZOYqJmzp7ps4wxPTExUYnLc5Sz3Jzfs6+s6/J+6hds3wAAAITdzfdq+j3GfwO1swJNs7bfcvLMdmDQ9qFPTzVPe8noqRWwHVSVo4zSEmPePHKY6JsGR7oCobrxxht19OhRTZs2zRNISvIEkEePHtWNN95os7TdKtMhVVREG90NnNNVUWEEoNV5GSq5sFQNadLOior2J0iddnmYqMyKndLyBi1yZ+GWV6hiuWQEU7tUPTdTE6tylFqbpUMVyYpWi0qWz1SDQ0Y9LOtsKc3QzLxqVfxHgza8Pl2HKnKDZvaOb3he0/dXqOJm7+UClrd8lPf22ylr+URlVlQoU2Y9f12t5OUTVZ2XqoZ1h1Qx19yPsxs63tdVOUo0l50YaN90tosBAAB6QtUubdQ4HarK0QatM9tExsPv6rXj9Lxv2ytY+82G6rxUqaBCFQnt06KDtIOOb2jQUnebC+iDejETOU7j/tX6e4MaXupaSe5A0p2R7FoAKUmPaOlc47LQ8vsyHX8x1fM0KPXF42r4cKKmL96t1O6+13ehRBmJiUpMnKmNbzao4YJU7dytR1LdXT2jde+DUz310LpFnkAqeu5SPVLboJab79V0bdTMDp5ITV23ztPNNPqu6Zpa26DaYOX5bL+dslpkeSI3e6OO1zaoRdUqe9FSjuWJnjfLPAnT9UgH+wYAACB8jmvjbDMDmCbtzEvWOeduHd8w02wHmm0S+be9grXf7JjoeES703x6fwVpB021tN2AvqgXM5ExGqf/oed/v1A/vUtq3PO/tHbD/5Sri6VZM5KSuhBA+pu67pByfYOqhApVmH/gWndIuXeFWmq1cmYbT5NyZWQ4A+XpOhet5LwKJVflKDExVY8UVCgzofOlelRVjmaeXqqKilwZgwd1bUva9dS+AQAAsGuqsvZ7DxBYLQVuW/m0vaZ3Z7UJmaqoaDFeF1KWDuWN0y7aQeinevV7Iu/OelO62/iKj5G/SdH5rLu7VZ47kOyJADL6lnE6vmFX4Berb05W7v4s6fQ5SVLD68fMTF61dm043nHBFxrUcM84jTLnL3vRmDxq7FTtdnredtSx141you+aLlnq0VL6vHbHjWvvRpGQqYqCR9TwgX9u9LinXlL1rzdKD96ruM7KCyJQWfqgQVPHGluiqjLtNrZE4+7ZrTL3O5oXjqnszU4KdwuybwAAAHrTqLFTtXtnkJ5nlrZXsPabZLd9GK3kvEPKUoPO0Q5CPxbeTOTohSrOsk4wRm39aQ+uorvBo0dCpg6ty9DMxERzwiPaWTFdZYmpZrBkPLXSzRO1NC5RMxM3SnpEWeumBnhqNFHT41I1M7FMWftzveZ/ZLExR/TcdcpaPlPG6qbqkcVmd4ibk7XOWo97snQob6L5ruFGHffUzT8MnBrXoA2JicY8i3ca7ygqSHmddNANXNZSjUucqcQNkhY/YnZJjVby2ixlzE5UoiTd84geCdidNYCbkwPuGwAAgN4UPTdXO0+72yQy2ktrpQ0+ba9oBW+/ddY+rM5LVKoZKE5dd0i5N0fTDkK/FeVyubrao1QvvfSSfvjDLgyxGgH9qa5dUpWjjA8W+XfH7e2yLpQoY5O0jq/2AAAAA1xLaYZ23ZIb9leMBnw7Frb0pfOg343Oir7H+mTNeFKXSQAJAAAADFAEkQNFQqZye+opWIhltX9NBwAAwNUjem4uX8OBq1KvDqwDAAAAAOjfuhVEDhkyRB999FFP1SVsPvroIw0ZMiTS1QAAAACAfq9b3VknTpyoY8eOqa2trafqExZDhgzRxIl8ZSsAAAAAdFe3gsixY8dq7NixPVUXAAAAAD7cvf9uuummSFcFEdLXelYysA4AAADQh/WX3n8In77Ws7Jb3xMJAAAAAAi/2PgJqq85FelqSGJ0VgAAAABACAgiAQAAAAC2EUQCAAAAAGwjiAQAAAAA2EYQCQAAAACwjSASAAAAAGAbQSQAAAAAwDaCSAAAAACAbQSRAAAAAADb+n4QeWK7YuMnKLW4OdI1QSeuXJEqTn4qlyvSNUFvuXTpklwc8D6ntbU10lXoEQNlO4JpKk5XbHy69jY2a2/adp0M47pObptgriuMK+kFX375pb744otIVyNsevOcQGhcLpfa2toiXQ1cJfrD/a93g8jGYqXGT1Bs/ATFbquyfNCsvWmBpldp84JCpe05pZ0pw/2KM26K23XSs3wPXHCtdfSrjz/jgj9Bm094/7+zeT3b3En5HTqxvU81Cv5Sd1mlrzWrruGzHirRcl64f9KK1RRSGVXa3KXlTOb5EOyYXs0+//xzNTc3629/+1uPlmv8Xbf/pBY3+03z/K37/r1yrHT58mU1Nzfr8uXLPVuw+UDP62/RnOZ1TfM6Hl2/PvX8dpj1C/Fa0H6f6fwaH2p9fndgvPbVpKvW4dCq+BmabHfRUO+lJ7ZrXsES7avJ1/wY/3q075cevJeGgcvl0kcffaSLFy/20MOrgXJOmPc5v58Q/v4i3Z6I9PptuHjxolpaWnhwirAL2328hw2O2JoLDuvkygTjAtn4hg46A8zTOFqP1ZzSiE4LG675Bac0v9uVqtJmR5aOphWpfmWCpGbtLT5re+kRKfmqT7H7+VnVOiXFd722Tafrur5wD/vHFy699fYn+vKK8e+tt3xNXx0c1TOFOzaqvCBFIxqLlerI0k+K7wv4UCGwBK2pOaU1XV33uXodlRTX1eUHsE8++URffPGFPvnkE33ta1/TV7/61W6W2Ky9aQ6tci7RvpoVZuOpSnuL3Z+7p1dpc/xCzds2Q/WLjU+mbXGGcE4MXC6XS5988olcLpdaW1t1zTXXKCqq+3+HTcXpSlrtVNqeU1ozxZh2srg48Mzuv1cZje15jgmqtSwXye3ors6u8aEZrvkFKyRJk7tzjbJxL20atUT1NXb+PnrqXhoen3/+uT799FNJ0nXXXadrr702wjXqK+eE+z5nXkPV/jdoV6TbE5Fef2fa2to816RPP/1UQ4cOjXSVMED11ftfIBHpzjrN4ZBUqIPmk7um44d11OHQNOtMjcVKdTiU5JNdsGYk5hW4Z/Z9eur9RNzdFdY7mxHgSWtjnWq9JgzX/JSE9vrE+5dp5ftE0v27+6n9nz2fG43gAkkqWGg8BQ2SAXWXkZrWXpY765m02inJqVUOc50+ZfRmRubd9y6poeFzSdJfaj9TTU0Ynp7EjFecpKN1Z32OpfXppfcTWWNfW540B9pH7i7Tln2cWtxsTF9QKEkqWBDkPOpqhrOfu3z5si5duiTJuLn2SDbyRKFWOaW0PSssT98TNN8vOBytOIekmrqrct935NKlS/rsM6MnwOXLl3voKWaVnlvtlNKKvALBySmdN1InryxSmqSCI6H1uAjPdngLdm2Vgt1nOr/GN/lka9vvEwHuSUHn9ckqddBbxc69tKk4XUkOh899z1ofh1Z5As/O76XBr73h525YWRtZPce9relK9Wxzezuhv5wT3vyXC3T8ArUnAh9n9/003XIf3a7N2/zPB6/94JO17Up7JtKvNH366ae6cuWKJxs+kLtUI7J64/7XUyLzTuRDMywNi2b97oBT0x6aYcn2GBlBbXGqvuaU9qVJBQu26+SJ7ZpXYGQd6muc2uoIVLg1m3FK9TVGV9im4nTNK5DS9pwyly3UPN8AIOY+zXLICOy8gjAzQ+nYqPKaU6rfs0RHVzs6DNKsT+7ra06pviBF0Z5PE7SmxmhcKa1I9QUpGhGTop1mfcu3OKSChd7lP7RJ9eYyBc8WSyn5xnxyaKvzlNZMCbLP7B+VLmv56B86dPgjXXFJgwZFyeWSDrzeoo8/6eGLrBnkTxs/WpNXmvu1pkhpcmrV2mI1mRmqAvdxqvHNfnS8j47Gp3vOq6OrC3VyygrV71kiSZ4u1cZ5ZJ5bzo2a5szST66y93W/+OILtbS0SJKioqIUFRWl1tZW/f3vf+9WuSePFEpyKG5UZ3O6s/jjPUHM0dUOv0bM1eYf//iH13GRpJaWlu43dk4cVoGMv7vQhR7wh207gvG5tjbZus8EvsaPmLLCvC4Z15ejq9ea77b535MUdN6FKpDlGlOwMHgDurN76YntSlotbXW6r5WFmretSk3Fa80HNqc82+4vcL0DX3vD7/PPP9dnn33mueZ8/vnn+vzzz8OyrlmbTpnX/kI9YwZ3/eacCMhcdmVCwOPn355Qx8fZOV5PmHWUCqUHzHrJqYPHm4Oedx422zOhtLnCyf2g1H3uXblyxZMRB3pSr9//uilC3Vnv06w0qaDgsE4ujtVBp0OzNo1vzwKajRatdih2tXtincpKnZIcmjXVyEzExUvy67pjNjDTrO8SGDdXaYlmTZGk4br/IYe0+rB+15hieUfE6Mpzv3kjKFgwQQVpRap/wGxEPXSf0WidMkNpKlTBkSo9Nj7wFp6ps67PLkuG0kfcWHObg9y8gu2z2kZpst87MD0r+qavakXmLeFbgTNLSfFZxv/TilRvZqban16a3EGm+zj5CraPWoyDaDSShwc5r6T288ipefGF7ZPrzkq6erpSDh48WGPGjAlT6eMVF/R8LWzf746NKl+ZIDUaXaDozip99atf1a233hq28t3XoHAL93b48r22/sF8mNHxfaaDa7zZ7f6oZ0Kge1KQeZvM7qjuec0Hm6sOvKGmgJnfju+lxoMZaZVjgla5F6n5/1RaY6376CD3leD19rv29oKvfe1rGjduXC+syX0NivVkdE/2q3MiAEesrFdsu8cv6Hzu8sYbJ07cKHl6ChXUndXJukDnXZ3MW63t9kygNteaKQmd1runDRkyRGPHju319eLq09v3v+6K2Oiskx8wn/KtPayjjhm6P0DDcZqZMTJ+8jX9OqnjRqYCdEkN3YiU/PanjQWHu5DNa1ZtTWhLGN08Fkp7TnmyX13hu8/8B1HohyyZReNdVaNLTdKBGSq3PhU231/sjN8+iu58GW/tT4/b63T1+OKLL3TmzBnV19d7fk6fPt3tUevGjPfumufPst9DfN/navDFF1/ogw8+8Dou77//vv7xj390r+BRRmM61C6pBv+scWfCth0h6eQ+E+Qaf3LbBMU6DmuW0+xRIklNge9JAeftgs7vpQ4zI+T+2/merpf8Ags/Ae+lQa69vaCtrU0NDQ2ec6KhoaGXu3n1n3MiOLvHryeOs+95Z+2N1b/8/e9/1+nTp72uSRcvXox0tTAA9Y37n32R+4qPKUuMboNOp3/maIrRRefogTfM7hPN2ltc5blZGo3MKh0MlLLzdEm1Bn9m5tHMzHkySr433MZibfbtIuKI1Rh3ferMQXbMp2RpDwQLHtzr66hB7M36BLNLL5gH2WcDklfG0WykSgH2gY9u76MAx/VE8VXXfXLw4MEaPtx4kux+P2no0KEaMmRIt8odkZJudG+ydsMO9DeJgAYPHqzoaKOZ5n5XLDo6uvsDHsWk6Ik0+XSxb9bebZ11Y3R3w3No62L7D1rCth02/aud+0zAa7wZRJj3FeOaLmlEoHtSJ/O6u/+aA+UE7V0hdXgvNe6ZZhdDSWos1t4TZt2dh/W7RgUf2C7QvTTYtbcXDBkyRNdcc43nmuP+vTfYanv0pXMiGLvHr5vHOfB5F0IBIbe5wuuf/umfdP3113vOvUGDBun666+PSF0wsEX6/heqyI3O6r7gOmV2EbGOgpqgNc6NqnV4d2Ocn7JC+9IKNW/BhIBdPt3lzi8oUm38Qk/XN6OrW7721RkjBRrdK5ZoX41/NqPWq6ujQ1udxjxGfRYq1lzxtC1OrZkiNZ0OXIsR7vW56+rYqP0PWedI0GNbHCpYvVCxNRtV/vgSqcDormcMltC5ESnpSlu9UKvcox8G2me2Supn3N15VjsUu9qhaZ7d5X/epO0psiwY5LzqqJfKlCXa6ijUqgUTVGs9jzznoHGOXG2uueYaXX/99WptbfXcYLsvQWtqnIpLc3h1F562pXe7zfVn1157ra699lpdunRJ11xzja677roeKXfyylMqH5+uJOu117FR5Q8EmNna/VzWkXbtC9d22DLFzn0m2DXeIa02tr/9Oh74nvTzTuYN1IU/sA7upVNWqHxLnZIs97W0PSman7JJWw84vLsbBijXv94vB7n29o4bbrhBn332mVwul2644YbeG7Gw350TQQS9d/q2J5zdO85Bzrv7O1gkcHvGv80VKddff71ncJ1hw4Zp8OAINp8xoEX0/heiKBdfeAOgC9ra2tTY2Khhw4Yx3HkfcvnyZTU2NiomJqZPfAVCVw2U7fDSWKxUR72e6EJgDUNzc7OuXLmiESNG9Nlh70PCOdFvXLx4UZ999plGjhw5MM499Fkd3f9i4yeovuZUhGrmLXLdWQH0a0OGDNHw4cPp1tPHXHvttRo+fHi/D7wGynZ4uAdM6exdRHRo2LBhuummmwZGI55zol+58cYbFR0dPTDOPfRp/eX+RyYSAAAAAPo4MpEAAAAAgH6JIBIAAAAAYBtBJAAAAADANoJIAAAAAIBtBJEAAAAAANsIIgEAAAAAthFEAgAAAABsI4gEAAAAANg2uDsLx8ZP6Kl6AAAAAAD6gW4FkfU1p3qqHgAAAACAIPpSAo/urAAAAAAA2wgiAQAAAAC2EUQCAAAAAGwjiAQAAAAA2NatgXUAAAAABHb+E+nRF1z6fYNLLleka9OzoqKku8ZF6YVHozTyhvbpf/3bRS17+Rd65+x7cmlgbHSUonTH6G9px/f/S1//52GRrk6fQCYSAAAACINHX3DprfqBF0BKksslvVXv0qMveG/cspd/obfP/nnABJCS5JJLb5/9s5a9/ItIV6XPIIgEAAUyMN4AABuASURBVAAAwuD3DQMnkArGdxvfOftehGoSfgN520JFEAkAAACEwUDMQPry3caBlIH0NZC3LVThCyIbi5W6rcp72ontijWnndw2QbHx7T+bT0hNxenafMKcL36Cz892nVSAzyzraCpO9yvTX5U2B/msqThdsWnFagq2PQHXa5TnV89QlrGs03cbUoubvfeftfyBpAvni2eZjs6XLh0fqy6eL0GPcdfq47396drbaKlDsPOlsViplnn7nmbtTfPet17b6XU8jHn99pnJuh+89oH7M6+yrMcgwN+T13Gw7D/rdPfx9D1mPn/P3izrDXI+BL5m9T6/fRZo29XR8Yq0Zu1N68q1skqbgx4/9G9dPCdObPe7pgAAIpqJdGir85Tqa4yfNVMsH01ZYU4vUppjo8prTqm+ZoUmn9iu2AXSvpr25fZpoVfjJW2P+Zlzo2oXBLlhOByqPeLb4GnW7w44A1f1xHbFOur1hGW99SsTZDQAF0p7LNP3SPOsDdO0IvMzp7bWLGxvJHq265T2xWfpJ5abVJqlvJ0pwz3TTx4p1DRHnZ65Km9oXThfunN8vFYd4vnSWKzU+HzFWepbX5CiEd2qj2X794zXqrXtDd1g50vT8cOSQ1r1Yl9q3JtObFds/FrVxju8Jk9eeSrg9p/c5tDBh5zmZys02aespAMzzONepLjVa83AzwjQflI3XtM8Mzdrb1r7MSjfUqd5vsFPTIp21vjv65PHpZ+b08sfOmz8zVrnrTml8i0OpT2eohEBNvnktvZzov1vPkFr3Mt3dM3qNYH2WZBtV/DjBQAABrZ+1J21WXufLVTaHu8G5OSVTm2tyffPtsTcp1mOOtUGysLEp+sJ+SxzolAHH9qotIDrrdNWp0/DVVJTcb4K0or8ApryLYECveG6/yGHak/7B4CTH1iio3VnA1TUqkoHazbq55tmSAfe4Em5DT11fEI7X6STL2Ypbk++5seEqT5TZijNWa8zAdbdrlm/OzBeTxSkK63gcN/LXk9ZofqafD02vqOZlmjWFEmNxXqmZqN+bgmQrZpO12naQ/eZgVuCHtsi1Z4z/r+m5pR2Lo61zH1WtU6zXEkjUtKVVlPX4d+Tu+zJKe3B4YixgSpepecOzNBjUwJ8pCodVLrnnJi8eGPgv+O0GX7Xmd4VaJ/Z2XbJc7wirll70xxa5SzUPE92N1Am23ea8ZCnwJmlJE8GOlD2GP1PF8+JE9sVu6BQR1c7Avce4JwAcBULbxBZsNC7m9eCQsuHTq1yBOgyFpR346/dcMXFO81Go0XjGzqoGbo/xnd+STV1GvPAeEuGpll7n5WeSAnQOOqgnDN1TqU9kOA3fcTY8QGCwmb97oA0a6p/Q/jkkUKvcgoWBOjeduKwah+6TyNi7tMsHdbv+mwXxW7o0fOl545PSOeLqnSwIHBjusfqc+KwCizBRsDzpfENHYyfoclK0Ky0Qh3sLxkiT7fJtdIm88HNuXopvl4/CdJtcsTY8TrqCciMDHHA4FuSNFpxDsv+OHFYBQECck83zSMzvLK7Mtex99k6v2PTVJwvBclCqrFOtdbfY8YrzrOc2RV3rfTzlf7nR9/is+2BjlfEDdf8Aqe2OpZon9lr4eS2tdImd8Y3Vs9sq1JT8Vqf7HaC1nh6M+Rrfkyz9qYd1ix3pvjxeq8eI+hPunhOTFmh+j1LNG2L0+xNwjkBAG7hDSI9XfPcXcOWWD60dk/0z9p0ladBvVb6eUGQBp0kTVmirTVmhsbT4A4DT2C0Vtpk2U5nlpLMRvHBB7y7Z1q7J7qnnzzibrgN1/0PSQePD8AbVwTOl6DHx1ekzxdrEH1khtmd2hDofGk6flhxZsA6+YElKvDrjttHebqHbpLWtgfFRwvk6U6+Tz7dJqes0L5499+T0UU2bmzgrKU0XPM3bVSt+zpxREpzxGqMz1yebpoPHPbJNhgZjdrHfc+VKj23enyXMnEjUvKNdW2SftKn33kOsO1BjlffUqWDBZa/H0eWjtbUSVNnSKsdwevc+IYOmpkr90OtznuMoH/gnACA7upH3VlHKy5g99Rm1dY4FDfK+M1oUDu1VVl6rsMGzXDd/5DRjfDki4c1a3GQDEDMeMUF6To4Znzg7oZNp+s0bfxos0JF5rtSPu+mud/d27NEBc920iWmsVjPWG54SaudlswLgunW8fFj83wJep52tz7uILpIaQUBum97qdJzq53tD1QWFEp9sUtrh3y681oyr5MfWOI3d/u7efmaJXmuBwFZ32NcHKva+PEdPGyydh2u0uZ4I3uxxjdY9MkOew1Es63KK/NofO6TmZQ67oIfcR1su6QOu1/3CUu83qWvL0jRCPM8mHUkyABLkte76+3vwmNg4JxA3/HjJwapNdf755nOFlo4SGeeiOq03FemSVKUXtlqo8yIeFh7M1/Snxc8HOmKIET9KIgcrvmPj9cqh/eF/eQ2h1bFp/tkBYZrfkGR1MkgFSNS0hV3YK2eqQnS7VWS8Y5VneZ5ZSOqtHlblbG871PLE9uVtHq8nvDpAjciJd8/gyIZ78RZBqoIpOn4YWmL0ytLty++syAZPXJ8fMvr9HwJdJ42a++2YqlH6pOgNc4ZOri2gwcPJw6rwCerG/i9y77M6JYaN3a4EchZguCTR+oUN8roBuo3auKJ7ZrX4fHxXsfetVlmxrZKmwM1Gk8cVoEjVmM83dgCZ6t9u6R7BaorEySNVpzl3e2TL2ZJnvc4TY1v6KBzvOJ6KsveYzredvc8nuPV5xhdmIOd/5NXntK+tADBe8x4xTm5zg5MnBPoe94rv6KhGeZPubQ41x0ADnB3TNZEXZJufUBPR7ouCMngyK3ayKytMn+btsWpn3e2yJQVqt9jfJ2D27QtTtUHHHAjQWv2GF3RyoN2a03QYw9Jz43toNurjAZ9udKVFJ9lTlmifTUrJElraoqMl+zdMzs2qrwmcHmTVxbpYHy69jrTfcrfpFlpDm0ee0qPyeiSW+D+MO3/0dYaadYm722c/MASzTtSpTVTrpanoP7ny86pnS2T0MXjE6yxbO988T9PHdrqzNcIdfV8yffOYsWk6OcPpStp23iVj/c9X4q0T4VKe2CFV1kjps6Q1r6hppRO6h5R5sAm5m/Ttji1c4rk+Vs29+e0LU7tjJH3Qx3Pcku0L8j+dGsqTlfSaqfPOgJ/3l5elWqdhVoVb3lP17HRvLaYvSEWd7RtwzV/0wylus/htCLjumUO3GEWqK3O/D7yXqHV2SDbPl7PBTxefYHRcyApfoLS9pzSmoIi1cY7FLva+NS436xtP85pRaqPkaQEzYpfqKT4w9rqzNca50alOtr/XtP2BMvEou/r4jkRM0NxCxyKPWD8vXNOoFcUXdFPbxqkn90TJR11SQsHqTXJ+OiTv7g05qMo8/cotW6VfrrKpW+tGaTFX7fM84z/9xne+sQgtX7T+P8bv7mih48aZbyTG6VvSdJnLv10lUv/O+C08EiPG6e/1jyqilEvKXG2pP2SkZ18QGdqpAUTja5Fre+/qH/Z84qefuwFjfnbx7r31lH6S/UPdZ9y9OFEd/ejc9qzNVN/WfCCMlWsf9nzirGOBS9owSePas8NL2jdrdcZs7aU6RvPPSvNztGfb7iov956u77pngZbolyuq+FrUAEAAIDeNTTjSqfz/PiJQVr80RXdUWSZOC1KZ+6Rxrwp49/NRnP9mTWDdOubV/TwNwbpzE2BgsUovbI1Su+vuqL3nhik7/7xih4+akxLOGvOv3CQWse6NHSzPPM+IRldZG9yqWRolJJO+9SnE6257Z0bv7H1hzaXMoPFnEw9OTtHH456zwziHtbezMW695I7qHtcb6xK0l+PPKozCS9pgczpdzylPz8wTK9tzdSTMoLFdf9crm9U3aw/T5VyctYr37oOy5qffuwFjal6VPNH5OjDidKerd6fd+TDVS/ZnLPnxcZPUH3NqYit3yqCmUgAAAAAwfz49ijd8HWpNbf9/cf3vhFgxmlROvODKN1g/vrGNOk9n1lK3AFnkUvvrZE0TUq4Rrovd5A8nWn+Kj1xWmpNGqRXPnRnK8PkjsmaeOk9zZek/e/pL6u+paclM5g7pz2erOCzqmiZrsQR0hld0rEqY3p63Djp/WJP8Je/p1wLMm9W+jvr9VrCC5p+h5Qvyzr0uN5YNV1mMlZ/Mbsttb5/xHYAiXYEkQAAAEAf8uPbo6RWI+gL2D11ofWXKL3zgyiVZBgZxWfWDNKtdlcUsLuqS0OLjMF4WmeFrzvr0wm3a2i09OGq6e0TPV1au+fJcx/rz3EPK13DVF21XkZ2M0l/PfJD3feO2cW1+6u5qvWjgXUAAACAge3HTwzSz75pZA7/90fSDd+M6nhk1WlSzGcuM/MYpaSv21zRUanxmigtXhjoQ5ceXuXSGzLfjexxjysx+pz2bP2hvuH+OfJHfT3+KRkjh4wy3pGUpDue0veiz6nCJ7jMr23wGpAnfUGSvnnpgvIlaf97+uvXH9CCf76osnckabS+/rWPdeYdSXpY079+XVi26mpCJhIAAACIoG8ltQ+eo89c+mmGmf1zD7Jj6XL6YsYVPVHkUmNu+8A6JfcM0s9yo/QzSe/91e5aXbrjN9KZH7Sv+73yKyof6z1IT1i+fGP2t/TNlvd0n3XaOydVPTVF0+84KemcNOolfbhKki7p2JFH9aTkPYLrO+uVE/eC1q16ycgqfv5HbcixdIG99JK+97cjRlCpZ7Xnffe8l/SXlkvh2KqrCgPrAAAAAGFgZ2CdgaBrA+sEE3gwnL6CgXUMdGcFAAAAANhGd1YAAAAAfcQrmp/zSqQrgU6QiQQAAAAA2EYQCQAAAACwjSASAAAAAGAbQSQAAAAQBlFRka5B+PluY5QG7kYP5G0LFUEkAAAAEAZ3jRv4QYfvNt4x+lsRqkn4DeRtCxVBJAAAABAGLzwapbtjowZkRjIqSro7NkovPOq9cTu+/1+6c/S/DKisXZSidOfof9GO7/9XpKvSZ0S5XC5XpCsBAAAAAAguNn6C6mtORboakshEAgAAAABCQBAJAAAAALCNIBIAAAAAYBtBJAAAAADAtsHdWfimm27qqXoAAAAAAIK4cXhMpKvgQSYSAAAAAGAbX/EBAAAAALCNTCQAAAAAwDaCSAAAAACAbd0aWAcAAADA1en1119XbW1tr64zLi5ODz74YK+uE/4IIgEAAACErLa2VsuWLVNUVJRcLlev/Jufn08Q2QcQRAIAAADoEpfLJfc4nb31LyKPIBIAAABAlxDYXZ0IIgEAAAB0yZUrVyJdBUQAQSQAAACALiETeXUiiAQAAADQJb5BpHsAnI7m787n6BsIIgEAAAB0SaBMZGfZye5+jsgbFOkKoHPVeYnKqYp0LQAAAABvV65c6dUf9A3dDCKrlZMYOMBpKc1Q4vIStYRYYktpRngCpqocZZSGWhu3FpUsz1F1SMtUKycxQyUXQlgkUB2rcvT82EPKTOiobnaDzGrlhHpMqnK6dBw713G9w3YeAAAAoMe4v+Kjt356TWW+lv2qsvfW1890PxN5z1Q1OH3DqxYde/14t4vur1pKM5SYWCYt7oHCEjKVOzc68GdVOUpM3KCGuKk9sCJfRpCX6JQeCUPpUrSS8yo6CI4BAAAGsvPa/9QyZb923ua8+QoppGncr+xlIS7TBVeuXJHL5Qrx3z/ql/et1KsXQl2u60Hk+deytWzZMs9Pfoc7plL5L9+i7P+c1FGJ2v9UZ+UMXN0PIuOWaqme9864Ve1S2YNZluDDDEgSjZ/2bJuRyUxMTFTi8hLVlmZo5obj2p2WqMS8aulCiTLySoxll5eo5UKJMtzzJ5qZQes8Zjnu0o1gzpie47RWOlh9rKx126UG69LWcgNky6Ln5qqiIlPTg+40S9nubGVVjhLTduv4hpnt21CV03EdEzJVUZGrRWODrsjYP+515ZUF2QeBsqxGkFexPPhWGJnTEmNb8qrlezwDHoe89mxrdZ57vSGeBzbPp57PngIAAPSQxkq9rZFSaUl4Ar2Y2creka6OwqCe4g7u7Pz70YFVmjbtDek/JIWwnPXfrpqUvkM7duzQjh3pUn629jcGmbExRsnrZ2tkh6WN1Oz1O5TeGzu4D+r+wDq1DRqVOk6pv65W8vKJklpUslNamjdOZa8boVd13kyVPXhIFXnRMhr6G1RyV67G/TpVKqhQhScblaxDytCuW3KNDNWFBunFMml/hSpuNubIrUg2/mN2/cy9S17zVOclaldVsjK/UaING8ZpZ0WuJsqY/rwWdVif5JvbN6s6L1UN6w6pYm60EcTMbvCsd4PWqaIiWp5urnmZmhjSTpuozIoKZUpG2b+uVvLyTFUUSBkfLDIyjxdKlOGcroqKTLM+GSq54F3HzrWoZNNGjSuoUG6CUffEWmmRpOq8DdJac79eKFFGXrVyl4e2FZJ0fEODllZUKFMtKlm+S9Pd2+U5PseCHge36rzQzoPqvESb5xMAAEDfdP7E24r5fraS3lmm8kpp0iQZ2cNS6c5zJSpplBSTrOz1k1T5VLbx+7JlmpRuBC7nX8tWdqmRxTSmndf+p0qkOxtVUiolr0/WB6VS+n9OkpE1M8uQNHJutrK/N1KqzFf2h7coprRElVPStaPDzFtgob6neOPMzToyUzr1qzV6/8oVReY1x0lKmlKi85Iqf5Wt86NiVFJaae7HSuVbsr6T0ncofeR+ZT/1gZJ3pGuSzmv/Uzukx7M1sjRf+s90TfI5bpPSdyj5Q/P4xCQr2x2QVuZrmSd1OUnpvRTkh0PPDKyTsEhZtWVmZvCYyuKmW4KqapW9+IiWerpkTtSidVLDh9JExyPandbJe4OLl/oEd2amKW23jp8+5zfPRIeR/2z5fZm0bpGnHu7pHdXHshbveW6+V9PvMT9xmtnCxEQlJs7Uxjcb1BDKe48mT3Zu9kYdr23wy5q1/L5Mx19M9WTbUl887lNHGy4cU5mytMgdVCVMN7PD1Sp78bg2zk7ssA52THXv4wvHVPbmbqUmeh+f4MehXWjnQTfPJwAAgIg7r8q3Y5Q0SZp0xyRVvmPJRZ54W3rcyJiljypRSeVIzV6freSYSUrfYWa+KvO1Q8vMrFq2bnnZHfRU6m0t044d2Zod015k5a+y9fad2Z4sXEzpDk8W7nzpB0rasaNLAaTUnXciu7Zsj2jcr5ITMRoZI0nnVXIuydjfk4xuw3JnLNcnqzE/X5Uxs7VsbqNKXjsvVZbo7TuXee1fSZbjli7lL/McH+MYGuvMzpfSdxhlZ89tVH4/fueyh77iI1r3PtigDaUtWnq6TNP/I1eyMwxNQqYqKsyuicrSobzkDmdvKc3Q82MPGVnACyXK+HXP1D5UjxR0812+qhzNPL1UFRXGfspZ3hBwtqnrDgV/H7LbHtHOilAzqJ24xziG1hq3lNpYLsTzIJRywrX3AAAAuqyxUm+PSlK2JE1K0qT8clVqkpGVmpLsCVAm3TFJ5QEWr3ynUudPVGqZp501UsmNkjRJyd/z7YRZqfITk5T8n+7pk5Q8t0Ql5quYI+cmdysb1tURU6+4XHK5ejcTWZm/TMskSSOVvD5bkyRVaqSS55p7oLFSbytZy9w7JGa2kqdk63yjNOl7y3TnU9lapmRlrw/Q0dVz3GJ0S8wkJZnHwX0Mz594W5q7zLOvR34vWZOeOq/zmtRJt9m+qce+4iN67lKNe32Dnq+drnu9ulxO1PTFu/W85b21XRukcd/wLKnkvEPKUoPOdbKOc6ePa9wtRljQ8vsydTR0T/Qt43T89WOe7Fq1c7fN+kjSKI27Z7fK3O87XjimsjfNT8ZO1e6d3XvfruWDBk0dO8r4papMuwPME33LOB3fsCvEEWF93DxO494s0zF3Zs6zLmP7nu/yaLXB1rVRu3zeEQ1+HHzZPQ967nwCAACIhMrSEp0/kW8O8pKvSlWqPMSkVPv7fTv8Mo+9KdT3GX2zib31PqRk3WeR218DRQ9+T+RELXpQGpfqn/2ZuHynxnm6gKZKBca7fZ6uqYkzVfag0eUx+q7panAPqOJbzn9kGZ8lJmrD6XHqcEzShEztjNuomWb3yjLLMD/B6tMuWslr29eVuKlB48zurNFzc73K7coALtFzl7av3zr6acJ0Y/ryErUkZOrQuob27qEBB7/pzERlFoxr77bqWVe0kvOs+yDY4EIhrmu/ZZ+5Bx3q4Di4hXwehHA+AQAA9C1GZjB9hyUIXJ+sxpf3y844rZIUM2qkKm3PP0lJUyqNrpjm+ktKpVt6KP3l/v5G9wiqofzuCnH+sH9PZMwk3Smz+6nk1e31/Gs79Pad2cq+823tsDWirreRU+70GkTp/Gslqhw1sl9mISUpytWrX7iCq111XqLKHHy1BwAAuEpV5mvZO0k+7yCag7X88E69/ebI9q+WqMxXvtK9BtJxD6xT+atlyj9hLu4ZgKdEI9e7B2upVP6v3APrVCp/mc9gMea7ldkfJhuD7HRBfn6+UlJSurTsu8+v0wfJGzRzeGjLFRcXKz09PeT1nX8tWyXfyPYbTbXyV9k6P9eSmWzcr+ynSswA3ej2OlvWgXUqlb+sRLes9x1Yx33cjAGOPMchwDGU5D3gTj9EEInwulCijNkbPV2Pw/ueJwAAAHpLfn6+fvCDH/TqOn/zm990KYhEz+qhgXWAIG5Obv9aFgAAAAwo1nxUVFRUh+8u9sTn6BsIIgEAAAB0ifU9Rd8gMBy/o2/owYF1AAAAAFxNrEGe9bscA323Y098jr6BTCQAAACALvEN9NzTAv3bU58j8ggiAQAAAHQJAd7ViSASAAAAQJeE/bsb0SfxTiQAAACALgnW9TRc/6JvIBMJAAAAoEt8B8PpjX8ReQSRAAAAALqEwO7qRBAJAAAAIGRxcXH67W9/2+vrRORFuXh8AAAAAACwiYF1AAAAAAC2EUQCAAAAAGwjiAQAAAAA2EYQCQAAAACwjSASAAAAAGAbQSQAAAAAwDaCSAAAAACAbQSRAAAAAADbCCIBAAAAALYRRAIAAAAAbCOIBAAAAADYRhAJAAAAALCNIBIAAAAAYBtBJAAAAADANoJIAAAAAIBtBJEAAAAAANsIIgEAAAAAthFEAgAAAABsI4gEAAAAANhGEAkAAAAAsI0gEgAAAABgG0EkAAAAAMA2gkgAAAAAgG0EkQAAAAAA2wgiAQAAAAC2EUQCAAAAAGwjiAQAAAAA2EYQCQAAAACwjSASAAAAAGAbQSQAAAAAwDaCSAAAAACAbQSRAAAAAADbCCIBAAAAALYRRAIAAAAAbCOIBAAAAADYRhAJAAAAALCNIBIAAAAAYBtBJAAAAADANoJIAAAAAIBtBJEAAAAAANsIIgEAAAAAthFEAgAAAABsI4gEAAAAANj2/wP1FhUa1YpFJAAAAABJRU5ErkJggg==;" parent="1" vertex="1">
          <mxGeometry x="280" y="167.54" width="160" height="41.01" as="geometry" />
        </mxCell>
        <mxCell id="zsDj_q2tFExIkIayEKkc-2" value="" style="shape=image;verticalLabelPosition=bottom;labelBackgroundColor=default;verticalAlign=top;aspect=fixed;imageAspect=0;image=data:image/png,iVBORw0KGgoAAAANSUhEUgAAAW8AAAIuCAYAAABw0IlAAAAgAElEQVR4nOy9f2yb953n+e60OA0ySBbBSgMNbGMckuGs5c4tK+1BTQ08lmswkbBOGwx1KqRujKFCw/TVV3fHJ1nSSdv2pEiydOk2hTtWYNYcOFcJFsi5NvGc1RKO5QfrJro1ad61lnc5JM89yxMh1ExQ59YYLSbg/fH8fviQIiU55CO/X4AA8fnxfb4P+eXn+Tyf5+Hz+tzvPvn/8iCEEGIrfq/aHSCEEFI5n8vn88y8CSHEZjDzJoQQG8LgTQghNoTBmxBCbMgX0plstftACCGkQnjBkhBCbAjLJoQQYkMYvAkhxIYweBNCiA1h8CaEEBvC4E0IITaEwZsQQmwIgzchhNgQBm9CCLEhDN6EEGJDGLwJIcSGfOH/uf9htftACCGkQj736NEjPtuEEEJsxhc+97nPVbsPhBBCKoTBmxBCbMgXfu/3eM2SEELsBjNvQgixIQzehBBiQxi8CSHEhjB4E0KIDeHVSkIIsSEM3oQQYkNYNiGEEBvCzJsQQmwIgzchhNgQBm9CCLEhDN6EEGJDGLwJIcSGMHgT8jhZvYv3by7hzuo2tPXpJ0jHl/B+PIuHn25De8TWMHg/blaj6HU3weFugiMQRa7ceTuIXDQo7aO7CY6pZLW7s80kMa7sm3saCf2sj2P4TrsP3/T78bLQg7d/u7Ut3Ql148VuP77ZfQSt40tY31pzxOZ8ododSEw1oTNUZOZT9djvcML533nx1ZcFvLRvN+o+/5l2j5DN89tl/OKR8iKJ+2sA/nizja0hczurvlr/7QoeohUNW+vhY2Yd6dkRfHPqCnKoR/OLfpz+Vg9e+OM6IPkmDnb9Fb42fxunPdXupz2p7cz70Rru/GYJ74TH8J0/exH7vtKD70bvPpZTxvVcFu9H38R3uvvxznac4hLypz78sGsf6lCH/V1v4tUtBal6vHSyDy88C+DZVgx950hh4H60gjtXZvHdbx3Bj+Nb2dY28Zu/wmvfu4LcIwCP1pD42TS+6f2SdJbS9RbuP+XDV/ZVu5P2peqZt57mV47jhV3Kq/+K+8kPkMlkcWdVPkH8OIm3B334uTiFd39wBHu2LQtfw88Hj2BABAABX9muZsmTzed346WxKO6ObU9zdV/046dL/qLzE+deVM9iA73bs82tkPvPt3EfPpy/NYqX/mAd9z+YxRuhKBZvZrHeKOD0X/bhhbpq99K+1Fbw/sYpnG4pnL7+YAlvj49iPCadNj682o/Xdu3Gu/0e8LMnpDZp8M0g61Ne1WHPAT9+eKD4wYdURm2XTWTqdrUi8OMoIgGHOi0dGkbobhU7RQghVaSmMu/S1KH59I/w/VtH8N0kAGRxLrKEwEhrYfa9msT8pTDeviLKJZen4TpwEF2BfgQO1OuWi6JXGMGiYWURA0ITBuRXbRMiLvq0dR5mRfz8UhTzt28jfXdNuuL/rAMvHPThWLATbY6nt7abq0sI/WAG8zeWkP4YqGv04KWjp/A/+1vRUKxM9OkaEj8L48Kld7Eo9+kZRyvaOoPF13uYxeKVWVy+/Et1HTzrwP5/9WUcO9mHr+2r8JzG1G8868BLviBOnzyCf7bRuh9nsXh1Fpcjt5HI3pVqpMpn9moQXQcdeKbSEtlm9u/jLBajM7jw7gdIGNY5iFd7/ehqqS9cpyRJjLt7IFUy/Iik+tBstdj6ChJX5nDhpzfw/m+yeAhIF+u/9GW0+ftxWpC2m4sG0TooAtCPS/02NELdTdq0wCyy/VrBfUtjuMy+astGcemKiOXlu9K4QB0a9gn4+lE/jr3iKTGm13E/eQVvX5zF4i39uh688LIfJ7sEuJ4p3s0nARsFbwCfd+DrR734bjIGAFiPfoA7I62GL8T96Cm8PBiTBpXKJ0jfvILxm1cwHwgjcrq18mAAIPHjVnS++UnhjI+zeP9n03j/Z1EE5qIYatlcMed3v3kLJ/7Nm0g80qatrybxzpQfv7g1BXHG4iLVb6M40TWCX3xsnPwwu4R3ppbwTsSPn8734QXdQF//zVv4pmk7yn7ciWXxs68GKwre96+O4LVTUaRNbf0i1I9fvHcXk98osXLyLXi63jR9XoDxM5utqES2mf27f2UEr/2FaR906wzEwgj53sRPxrzbeK0FeJh8C71/btHXR2u4c/MK7uzrMQbELbKVMVxRX3NXcMLbr7vbRmEdubsxhAZjeDs2il/+2Ff4fj5M4sfH/Xgjbr4Zch25u0t45+4S3jnnwen/LYxvffHJLZzaK3gDeKapFfsRwx0AeHQX6VWguVGal/tZEC8OinIm0YrTI/342oEGrC//EqHRMcxngXQoiO+4Y7j4Sj3wbCtOhsM4hhyuv9GP0G8AYB8CP+jHoWelNuv26rKQ//IJ8FQ92l4J4hVvE5qcu4EHH2Dx4oxcj88i9No0Di0NV34h5h9iGP8fRdz54yP41tEj+MqzOVx/ewqhm9IXbf29EZy76cX3D+gaXr2C3q+PYFHOVF84NYKhIwfxh58uY+HCKL4bzQLZMHr792mBf30J42pgq0OzfxgnX25Fc/1/RTqzjMTPZ1HRjQp33zIE7mc8R/DqN47gK40PkY5F8cZsGAMTJdb/9CEeog4NX/Xh5BEv9jc5sQcreP+9MM5NxZAGkA75MX7gA+O+F2MT+3c/qhs3ur64nlrBHfEKzs0u4SGAdPQUXnu2sgNJya7Gp9HZHVbfu7pGAV1HvTi0bzfqPs7gV79O4v0NT1uc6AqHcQjAnXk/xq9KU18aDOOoW16kwaktvskxXHFfP13H+iPdePgTB/Y//QkSt67g3GgYiUfSmP63l1sR6dmtrfcoifGuHoSUuyKf9eBrPT688q924+FvRbx3eRbv3F0HHiXxxr85hYa/mUHXLjyZ5KtM/Oy+/HPPS3+v3ypjhd/9Mn/qeWWd4/nLH8rT/+GX+VP/Up7+L4/nL6+Y1jPMn8rH/0k/M5e//JpFm+a+vvvT/G9+ZzHjnzL5S/+9sr7HuB8fRvJ+pb+vRfIf5YvMe35f/rnXfpr/f/+pWLv78v/ih7d1Mx/mF/6tR92mP3Lf1CnjfLVPt6a07Q3cyP+j1Y7+k9VEKx7mf/5trX/esx/kf2da9x9vTeW9+n08e9u4wO1385eWH1q2/reXurV9N69XjEr3Tz8unv/X+X93I1e4/L1I3q8u482f+7VhB/Kvq/s3lY/ny5z3j7fzr7fp3rv/5Ub+ow3e948ix9Xl/ZHCfpbzXdrUGN5EX/Mf3chfvmbxXubz+X+8MZr/F0W+E7+Z+dfaZ378p/m//S/mfj7M/+qstsxz3343b7U7TwK2uGBp4JkG/KHF5Nx7Ubwjn6LtP9VfeDR+1otvKKfvj2Zx/deVb7r5SA/2W9XZPu/ACy8rN6yuI31vrfLGsRunv9NjPIX8vANf9x9RX67fXdF+hbn6S1y+Ip9WfvHbGHpFl70AAJ7GS109ap/e/g8Wv2zM5fCR1T3z5ZYFVn+Jn8mZHp7qwfdPFZaj6lq+je+/WiJP9RzBq/usa6yuA0ewX/5/PZWp/BeoZeyfftzU9fRjyKpE8cc+DJ1SPt8VzN/c+pXyh+/NIvRAfiGM4idDQvH67zaymTG8qb42COj6qnW5p65VQJfyQszivvL/p0n8/LyScnsw1N8D11Pmfj6NF072a+tfFfF+Yc3ticB2ZROsZgrrkljHnV+L8v+70f5lR8ESAOByCwBEafnMGuDZXC1x/bd3kcgs486vV3A/JSKRWcGdrEUdsSK8eOGLhVOf+aNdqAOkU/p/0mqA66m76oXWPS99GS6rL9NeB9oALAJY/3UGOXjQ8EUBrz4VxtuPAIgjePHPlnD61OYuCur7gG94i5SK6uBqaoX0vpfg0Qru3M7izt3buL+SxeL/ncF95YJYJVS0f/pxA7zaLhQth7i+/CL24C7uA7j/H5eRO75vS79uvJO8om336Hb+ZqE8KhnDW+rr+hrSv8lg+T9/gL/97QMk/mMG6exd6wPxb5fxvlIj/7IPbdZfY+CpL+HQEWD+CgBcQfxvp/CSxS3GOx0bBu8VvK++cGJPAwB8go9WlGkreOPrTXjjMWz6YTKM73z7R1hcfQxPlRAc2GM1vXE3XgBMd8QAD3PqDuP+Gz44yt3hulYM/eQ4Eq+9hTuPgPW7VzAevILxp+rR1tOP08Ej1pmZBfo+vODcZOHxYRKh/m/jjffWtudZHRXtn37cCHDtLdHus/VwAlKWeGsF94EtBO813M8o/7div/Ozu+hW+RjeZF8/XcE7o/34d7PJ8g/AHz+QrmUBwBed1t8HAMDTaGjUXqXvrwEV3wlkf2xXNrlz82+0L/kRD/Z/RhnLevJNdHZNy4P+aTS/chyTM2FEFkQkb93GjQnhs+nINlDXcgrvilH8MCCgQTktfbSGxVA/XhZ68OPfVB5G6z7/+5V3ZD2JN7p6MC4H7mc8R/CtiRn8dO4KlpaWcPf6KNoqb/Wx7J+BZ39/G38cVld+mWqLbH0Ml9vXNbzzrZfxHTlw1zUKePV7U/hpOIobS0u4e3cWgS3vjcYzdU/mHSf2yrw/juHCBSVVqsOrPgFKEvX76p54MPTXb218BfqpSu7H/gSLl96SyzW7Ebj0Loa+bBwwv/v0M37Gm+5L1DwYxcWCmrd5+f8GhoT6mX34Wv8Mvnb6E6RvRHDuzR9pV/H/p79C298cr+jA+P7KCgDr7Ocfi7w3D9+bxY/lEucefxi/HDTds/8Im8/Gy9q/Ovwz9U0Rkb4HoLFIex+vQU1A/2SX5XWXStDG6wbb3TY2P4Yr7uvdKN54T25LGMUv3zLdDljsu/LUM9gD+ezmNxnch6dI9v0Jcurzh+qw54+2+NsKm2KfzPtRFm8P9qsXlyAMI6AOvno4v6QEryTi94Bnnn269F9FB+sM4mrZT8BXvmReeR2Z5aXN7dcmafiTL6kDO5HMABvtb7Ed/vzTcH3Vjx/OzSCgHPCyt3GnjKuDDc59arBd/9kS7lg+MOwT3L5p/d6kf63VUtsOFN5+t565qyuRbZKS+/c0nF/Snoz0CzFZ9GCRvnVDvbC2/0DTFp/mV4+mA9p2314QP4PHu252DFfe19zybe29Ovilwhr5bzPWn6tjn3am9UEM7xd7QNyj2/jVe8oLH1qe0Idb1X7w/nQd92+GceLPjuC7ytH8KQGT3zcezfcf6oZL/v8Xb7yJxU0/HFvEnVSp4XkbadNzmdfjP8L47Ga3t0n2efGqckHn6o/wxntl3uFS7ImMT+2Cq3iRsUgfvowupSzx4E28cXmlYJH70T6cuVowuYBE5oFxwqMk3tjMm1rh/rm8PWrAuB8axhsfWFy0+20U428od+sIeNVb7Epa+bgEn/rjsvXZUzgxX/je4dMVzF/Z3PPP31/Olphb2RjeSl/vLK8Yg/2nK5ifmtZq23rqWvH1gJKEifju96K4b/48P/0E75+bki5IA9gTOPLEPtyqpsomictv4o3/IL94pLsyrf+VlsOH8z8ZxUvmsoi7B5OBKDpDWeDBLHq9v0RbzykcPbBby+g+zuC6eAUffeVH+OEr+lP8p/GHuqrD231B/OFIEM1Yxq/qXsZprxMtR4DQFQC4i/FvnwJO9mD/s0DubhQXzsUAx24gazGoHxsOvPq6H/PdYaSxgreDXix8tQenuwTsUXc4h7Qo4uc5Aed/IP9IJzkNz9mc9sOJXb+Pj7LLeP9/fxPjHyhNt6o/fCpJXStePe3B26PSl3bxey+jVZT7gBX86sosQley2O/Zh0Sy8PY6158eASClg3cmvo0TnwZxdF8D8PEyLl/4EX4BB/ZAdytZOVS6f40+fH8iJv9IJ4vQUQHvH/lzvHrky9hTl5N/aLQkX3SrQ9vEMLq2o8Txxz2YHLmCF0eTANaxOPwiPBHlB051yN2N4tKFK0j4ZtF1ZMPWAADP/NE+ANL7fOeNPgx8/hS+3pjD9VUnhnq2MIYr7GtD05ewB6L0uUVP4ZvPDOOksBt16yvSD88+3AUXshZ3jdWh+eQUAu9JP9JZf28EB79yBa+e8qH9jxuwvvoBfnbpr6TyFwA4/Pj3J5/ch9PVVvD+2VtGE4mBp/FCYBqTp4UityrVofn0DH74wIfvXP1EvkA1gkUL0UNba+G6bd84Bdfsm9KA+ngJb/yFdArZNvEygKfx0ulRtL0n/5oxG8P4X8TUtV2BWfylcwYvDn6WwRuoa+nDT6ZW8HJ/DA+xjtx7YQy8Fy5cUDDu8MPkFfw4eQU/tmr0WS9++BO/ehazEa6eKZxfDuJENAsU9KEO+78VxuTuGbxoEbyfefHbmPxqDAPvrQPI4hdT/fiFMtPhR+RHDpw7MlJZ8N7E/u3xvYnIx0F8c2oJD7GOO1fewsCVt0wrPo2XvjeHH/o2uLZQAa5Xw3j3kR+db0jlmpL9Lqe9I0F87Y1TUmnx0V3Mfy+IeQAIzGJoi2O4or7u+3P8+8C7UiKFdSTCI+hVhsRTAib/xo/0Ib9F8AbwlAdDP3kTD/+HfszfXQc+XsLb31vC26bF6vb5cT7Uh2bzfeBPEDVdNnnGsQ/7vT34/g+iuPHrJfy0v1jglvn8bnztzSUszY0i4N2n3WkAoK5Ra+vsKxYX1vYdR+Tno3i1pV49kj/j8KJlr/xqlw8XF8I4rWv3GYcXgR9EETnt2fjhS4+JPa+8iaQ4i8mAF/sbdTnIU/XY/0UvXv3eFN4d82k1WscRTH7rCF7Yp+0nnqrH/gNH8K2JWSz96k18rZK7/j6/Gy+NzeHdH/jxktrm03AdOIKhcAzvnirx3nx+N7p+HMNPT+n6/qwDLwWm8O58H5o38+ChTe1fHfYHwli6Hsb3e7zYr3sw0zOOfXgpMIqIuITzPY5tzvLqsP/4LJYWZqTtqp9fHRr2efHq98K4caoCg8OzXvxwIYzTXod6cbqu0YOvNcnjfUtjuJK+1qH59BzenejBC8p7+VQ9ml/pw08XZtC1a4N3cZcXk38t4t0fHMfXDui+x/LnODRzBUt/3Ye22tYIPXY+l8/n89XuBCHEXihPOAzMLWPoCfyBTC1Q05k3IaS2CXV/Ca3Bt/D+TrVn1zDMvAkhlbP+CR4++h3ef7MXJ2ZXUPdqGEmrZ+uTxwYzb0JI5dQ9jWee3Y22r0q/ylx/kKv8OTRkS9TU3SaEEDvwCdI3l5H7eBmXzkk3hzcLni3+cIlUCssmhJAK0dRrzzha8fVj/Tj9yr5N2anI5mHwJoQQG8KaNyGE2BAGb0IIsSEM3oQQYkMYvAkhxIYweBNCiA1h8CaEEBvC4E0IITaEwZsQQmwIgzchhNiQqj3b5IOl/7NamyaEENvDn8cTQogNYdmEEEJsCIM3IYTYEAZvQgixIQzehBBiQxi8CSHEhjB4E0KIDWHwJoQQG8LgTQghNoTBmxBCbAiDNyGE2BAGb0IIsSEM3oQQYkPsFbzj03C4m9AbXat2TwghpKpUL3ivRtHrboLD3QTHVFI3Yw3zAavpSYx3hxGYW8ZFX31Bc4mpJjjc00io608jsZ19LOhPIbloEA53E8bjxv83Wlbd5w3aL0l8Gg53EPOrm2/CtqxG0Wt+7+LT6vspjQ3tT/l8xuNQEwLjnzx2zPN021A+P32bhSQxXmReLhqEIxBFrtj+WG5Xaq+gn5Wso9umeR8MSVF8enu+Q+SxUbXneRsIxZDo96AZAFZvYEG0WGZ1N46lltGwYWP16Aoto2vLnUpiXBjBYmAW2X4PgDXMR1fKXrvBN4Osr9z5K0iLANyb723uXmbzK+94BEyKM+hq1Kbk7sn/tPQhm+oDkMR4IINjIZ80xuLTcHQDkdSyNC4hHwSmlPEABOaWMdQCKXAK00ik+tRltU0LSF9LAi0e3cQ1XL8qAvAWdlW33YuGGUmMu3uAuWVkW3TLuqcRUbarH6sBAeNxuX/CKJbk/UpMNeFM9KCaAKn7YCJxLYw2QcC56JplskSqT9XLJm2CACCMBTk7yd2MYVEQ0KZfaDWKXkFAqynL0WdUnSFlYXPmrcvkddmFMRuzyDBWM0gbJtSjy+fR+lMsY5ExZ96GLCcQxX9S50tfyhAAhHqkzKhIFqW00RvQ2lKyyNZBEYCIAUHepqmNYmcAxIo1zJ8PIzBnDMbN/SImUzOFZzeNB9EuZJC2OutxB3ESpnXiYSx0jCJgud0MJsXCg0AuOoNQYNYYaFv6sDSRwbmC8VePQx0C0vcKx2XzYT8WMxslIUkspEZxdswLXL1hfXZAqk7Vgzc6vAgACF1LQslI2jq8cKkLSBkwJkRkU8uIBIBQ9zQS8Wl0hoC2CRHZlIhJwapxKQMZEP2IpJaRTUkll1w0iM6QlHVI64bRaT6FbTyIdgFSQDUEPzkjF0axlFpGds6PxUGhZHBUgqu0vWVkQz78c3WuB0OpWemLHJhFNuRDQ6MPF+X+Lk0IQKjH2H7HGLLyOqHzUcA3Iy0HAZPiMoZairxn5X8q9kP+nNS/7rBupnRQk+aVU1paQVr0o70gI62Hyy0i/cA0efUGFuDFoUbz8gBSGew57MTAJaWMsYb588BJn7Nw2RLt3M+ICBz2FExv2Ou0CMZruH4VaD9gUV68Fja0E+q2OMDHY0h3HERD40G0I4brT2IpzgZUP3jjINoDkEonqzewIApoP6Ab2PEYQgAWBwVdhp3Be++EAQjyAK2Hy7LkIJcjAl5dJqOcsipfTilLgWgepFL5RQqK8iCfSqr9aes4KJ1et+gPPtbcz+i3Vy5SrVLKqI249tYD2A2X5QELRd8zy8xwpxCYlQ6Myt+cXzdTOqhJ84zlk62gBr5h4KxSbrGixY/JVEw6eK7ewILbW1he2ZYOKQewYWBMt5/iiHrWunDYWCZRE4qUNj1xLaN+rw51AAs3eYNALVIDwVs6lQPCODccw6JgnXm0yVmk8gX86h8AgBOuUl/EgtJH5TT4ZrTMPhTbRPa6hnSqsjWk8ohc3zQEocowv2fbFbR2PrvhsiyDrCGdEuDaJb1Sz9wwggsly1L1ONQhlTcSl2JoP1qYQQMAGp1wiVnct5i1x2ldBsndy6DNuVvu0Kx8tgZdpg+p5i0f0ELni1wkVViN4lxIO1NpHRSxyNJJTVITwRstfkwKwKIoahmtOk/KbLUBtIb5aFIN+FKtPImFUEGrutKHPujKmbaaicqZuPmgsRrFuLmWKDiwR+mPcqoqZ7lWp7TG7Wl1/Y3QZ+qbuhBZ5D0j5VKPrhNODAjGUlNiSsCAO2g6CNajKzQLbFCWavAF4bo6jHOpIuUVAIAHxyYyphJeEuNTSWl9c3kuPo3WQSdOmi4oNvhmEEFPYSmvpQ9LHTGcKXGrbe5mTC23KX8R90YHJ1INauNuE7V0odTp9DU8D4bEUaSFEbS6R6RJgVl0+foQCYTR2d0Eq7ittNsVmkXa3YNOt1QDbZsQcdE3g0imCZ1CEwYAAH5EUoWnvelBAY5B5ZWASVFaRupPDxzyhtsmRAy16O5gMNGgbE/pqzCK/6NDv4QHxyYEhAZ74EiNYumEHwiF0ekOyxd0N6bBF0RgsAcDQhPSc8vW71lZLe1EpExyQH7VNiHi7EartPQhOyfdKqjQNiEia3nnhQdDczE4AlH1rg6rZY51ABf2liivQBorSwhqnxv8iKT6AABDqVnptj9lYWEUSxbjFgCa+2ex4A5iXgya2h9De0DA+N5lHINU+lG/P4G/xGQKaB8z7mPzYT86ryUx1FIsQSHVgPZ4QgixIbVRNiGEEFIRDN6EEGJDGLwJIcSGMHgTQogNYfAmhBAbwuBNCCE2hMGbEEJsCIM3IYTYEAZvQgixIQzehBBiQxi8CSHEhjB4E0KIDWHwJoQQG1L14G02e/dG1yyN3oXuSZPOSl3nCTWoE0liobfI6z2eumdkG8ac2Tovz9e8pCb7usXyhFSDKgZvSQzcGdL8ktnULNp1SyiKpqUJAYuDw6agLBr0TIlremchebKQAuyZjNMgrk7cBM4qLlCdhKC5XxlvIiZTJmnBahQLKdMz1PWKtX4+05rUBtUL3vEwBkSYDN0edFk87L5hrxOAXvwqoE3Qm2Ikk0654gKy0/BgKLWMi0cdhqnNPk1UII0hK/Ru0TXMD2fRfqLYsoTUDlUL3lKmrPkAN15W/yVzol0vDY7HEIIf7R3F2yBPMmuYP5/RbOpqOWUYGNOSh8SUgPSJPqMceDWDtCr2ZUmO1A5VrnmXFggrdu5OzCKbMn6pXAe8aJNLJ4lrYSDgxaHH3l9iP9YwHxCQPqETMDf6cDG1jGxqDBhuwnhcqpefc4oGs7px2WVkRS8WhNKuSkI+K6oWvPc4N5byBhR7eqin8EKRLBdevDqMc6FSAmDy5JLEuHsYGFsuDMoAFHdq+t4NXBgUsTgoSBl2dxiLg4LuoqWMIrQmpAaoWvBu8AURABDSW7etjO0tfYgEAITMNux6dJ3wA6KIRUNJhRBAyrhjaE/NmGzvxmWuXxXh2nsQQzpbenbOL4uqTddf4mEMwIE9j7vrhJRBFcsmHgylREwKYXQqt2EJI0hbLNl8dBRtkAJ9Sj+jxYsAAAS8xjolIVhBWtSNLfV2Qf2tfwIWOixKJXr0t612A5GidnhCPltojyeEEBtS9R/pEEIIqRwGb0IIsSEM3oQQYkMYvAkhxIYweBNCiA1h8CaEEBvC4E0IITaEwZsQQmwIgzchhNgQBm9CCLEhDN6EEGJDGLx3JJJizhGIIrcaRS+9i4TsOKoevK0ExLloEA53k+kRsI8T7UlzBc9wLkZ8emtmFdnmIu2jHGzd2/Sg/9UbWHDPInsii1ZhBK4n5Fnnj0dATEhtUtMC4s+MeAwh+V/Ni1ma3L3M1rb5IItF9UU9ukLLBbagTdPow8V+D9DSh2yqmIhgJ/GYBcSE1CA1LSBOnw+qGdJ4HMZMSs2a5KxZzazk1/p5G2TViiNzckLnxYScyanZtbad/xQNonVQBCBiQGqUK8AAACAASURBVLDu23gc6rOgewNBYx/i03B0S7b7UHcTeqOpgsxbOftQs0b9c6UN+6Jk7dp049mM7uzA1Medk11SQEyeQPJVIn52X/6554/nL39YOO+jyPH8c8/vy/sjuXw+fzv/+vP78s+9Fsl/ZLHM67dMbd2akqfn8pdf25d/7uxt3fJW25PbP3s7n/8wkver2zWvY+yH1TxlPak/U/m43BepD3J/np/Kx/P6fuYL5un3rfR7Z2qzAH2fTe+jYfs7hA8jeb/8eRvJ5S+/pvvs5c/ZPB7iZ+X349aU+lkSUqvUtIDYtbcewG64DGexUgYsZb4SzYf9AESkH+hM87tuYEGE5L9Ul5eWMSCXTAKHPUCjEy6UXzoxt6E4EDtDAJBB+u+l2W3O3QDq4XKX19z9jAhYqd3kzLlTqfFgBWkRliYhKXPvUctBSh/bOg5K2ahsIQpd2+kXM7coICakRqlpAbGZv5cDEhQxsYIaiKaxEIIxmAVmNTehRf1XCvaKqV4OdrrSSSW0TYi6bc2g659X3gawhnSqcGpiqgkOIYZ2cRlLE/LRLJex0MbJB7erXiylREw+0eXbbRYQE1JD1L6AWMff6TJS4wVDD9oDAEJhXRYtm75DMbX9RDRqyqiTcrCfNchnARELN5V+yNn6qlWglJEPHlrGvob56GYzWimgGA9sckAXvDjUqGTmABoK91Hpp5Rhy5m5vo+ZFem1/oxjR/IYBMSE1BC2EBAr/OlhPwBp+TNXjfOk0gmglRvq0RWaRQBa+52mdXLRGamU4NytTdQFYqgHmCY4hmOGdaWDj3LB0oMhcRRt4ghaZbHtwEY3o7T4MSkoFyz/wdT2DCIB5WygCY7ADfy3HQIgt39OvRuicB97b/4p2gWlhDODtJp5y32Uy0iO7jDaJnZymWCbBMSE1CgUEO8UVqPoFbI4uV23GxJCapqq/0iHbAOrUfQKI1gUHNhT7b4QQj4TmHkTQogNYeZNCCE2hMGbEEJsCIM3IYTYEAZvQgixIQzehBBiQxi8CSHEhjB4E0KIDWHwJoQQG8LgTQghNoTBmxBCbEj1grdZabYpLZdZgba5Pnx2omPyWFiNotcsEo5Pq3Jhs+RakS/oVXXGP/kxxeZ5um0YNHVFx5A0Pq3m5aLB4uPWUventVfQz0rW0W3TvA+G7198evuE2OSxUPXMWxEYLE0IWBwcrtDGLrkLsyHNVVgRBgkw2bkImBSLCDlkSXM2NYuAMIqllCyCjk/D0Q2dHHsZEfQYAnhgTp4njiLdXSTQCQLSBbYi6TnilsSn4RCyOKl/vni/B1IQlkUk6nPHgU59gFWfS28SK6v7tYyIe0QVMRv2IbVseH554loYbUIG5yikqFmqHrwVJEGsiPQDo1DXcPQ3ZELTSJgz7y1JgNdQrrCY7HTWMH8+bJJjA839IiZTM4UJRuNBtAsZpK0SD3cQJ2FaJx7GQscoApbbzWBSLHysby46g1BgtuDAszRhFWAVQ1Dh+G0+7NeEHEVJYiE1irNjXqBSJSD5zKiZ4C2ZcQS4dtWjK6RlNG0Io3MqqQZbTTVmHuBJjAsjgDxfkhlogX/RHZQyEgFYHAwj0dKnqtQCc8u46APmAz0IydnL5s4ESNVQJBPKn3xglpCkGdK8YBmf6QrSooVDFPVwuS08qKs3sADJclRAKoM9h50YuKRk32uYPw+c9FkY6ku0cz8jWlqPGvY6LYLxGq5fBdoPFJqAEtfChnZU4Ye+vBOPId1xEA2NB9GOzSkByePnC9XuwOKgAMeg9H9gbllVViWm9KJdLbhbDUgAqtYLuvYkCbD0JTFIgK3OWFdlYbHYA4duu+kHAEpIkkmNEJiVywsy8Wk4rikvBEyKRh3admSToe4macwJo1gqVbpr8WPyfBgJeNC8egMLbi8uAljYhj4YO6SMXdP+iiNodY8AkL5j+uzd/BoAEtcyaD8qfc8OdQBnbq6hi0q4mqPqmbde2jvUAs2QjlmpDikvp3obK2hvUxLgDYTF5ElgN1yWZZA1pFMCXLukV1K9WMQkRnCh5EXvehzqkMobiUsxtB8t4g1tdMIlZnHfYtYep3UZJHcvo2n81LNG6DJ9aDXvOT9C5ze4uL8axbmQdqbSOijq3Kyklqh68C5AvogYOOwxSH8lR6VeDGxiqxLgsoTF5MmgHl0nnBgQjBchE1MCBtxBk9BY8oii2AVLmQZfEK6rwziXKlJeAQB4cGwig07DXShJjE8lpfUHBeOdK/FptA46cdKUFTf4ZhBBT+FdLi19WOqIGS5YmsndjKmlx6zuImfpgxOpBrUXvOUgXCD9bemT69BC4YVMAKpgd9MSYGwoLCZ2RV/zLvNCdEuffDeHtt45p2gszah4MDQHU9AtXOZYB+A6UfrOqAbfDJY6YvIYboLDHUN7v0faRmoW0NWoHecdWCriLG3unwW6C+v7Db4xtF/VDgL6mrdjatGyVt582I9QwR0zpNpQg0YIITak9jJvQgghG8LgTQghNoTBmxBCbAiDNyGE2BAGb0IIsSEM3oQQYkMYvAkhxIYweBNCiA1h8CaEEBvC4E0IITaEwZsQQmwIgzchhNgQBm9CCLEhVQ/eZrO36pc0Gb2lR1ia/ZZGozd5sslFg8UN76bHternFTz3Wu9CNT/mNT5dME0/hku2pVewWW3DbIC32r6KzreqLmN0sFob7cmOIV81cvnLr+3LP/f8VD6uTrudvxzJ5fO3pvLPPb8v//otaWr8rLKcvM5rkfxHVeo1qUVu519/fl/ef3Yq7z9723KJ+Nl9eX8kJ724NVViDN3Ov/788fzlD83ryWPv7FT+dd26H0WO559TtvlhJO83jGcTuu3GI8Y21L7p+ChyXP0OFO6PVR91bNQXYnuql3nHwxgQYTJ0eyxdeXucAoAidm5C4MFQahkXjzpKLKP4T2VD+1gRKcJqBmlBs900Hx0FMiuQjDnLyPZ7DYsbxMCNPpwMlB6nbR0H0QCg2adtv2GvhYwYSVy46sUxSw1fEgvQjD7NR0etLe8Br6WogewMqha8E9fCkGzxGy8r+SudcBmEqhVYUcgTilZGWDisCHlXkIYT6WGlvGAyMjU64RI1Y3ruZgyLqUxRQ84ep6CzzCSxECq0y6tllWteXCxITqSDidlek4vOAMWsOzo9oNpndT25HDQMnLW0/pCdQpVr3rqAbIGiaOoMCZgUdRm6IlRNLVt8GQhRkDLybGoZ7dd0B3oxDJyQHY1zQKfhuokHQ3NOVZt2JuNEm9tZVF3W4BvDZKpHVZYhUJiQNPfL2zocM9Ww1zAfEJA+MWPyYiZxYdCJ9k3Irxt8M9K2xoAzBapAspOoWvCWSiFhLJS4qCLZuWULfIkgT8hGNB/2YzGzIr/ya4FRdqYaaOlT5bsXDwNQ7OyWyOWU1DKyKT9cqRIJSYsXAdUOn8S4exgYW8aQOUjHYwjpSx76C5lTSUOmLc03ZeKALNRmqXEnU7Xg3eALyqJhXXawGsU4yyDkMZC4FkabczcAD9oDuqQhHkPauVu6i6TgzqUkxrsLSxrFyEWHMeD2ohlrmA8Uyn8RjyEkOLAHa5gPxNBeJClJXAtrdXQAaPThomJz7/cA2A1XakZtP3FpBJBr6SqrN7Aglj6zJfbmC9XbtAdDKRGugIBOd1id2jYhVq9LZAchlSQGlOEUmEVWLrE1989iwd0EByCV4EL1gO4MMDHVhM6QvNrccumzvtUoeoURLKpteQBoCUguGkTroNIJPyIpHxqQRFoMY0A37qV1fWjAGtIpAa6jpfatHl1jXvQKTRjQ71t8Go5upU0Bk+IML1juYGiPJ4QQG1L1H+kQQgipHAZvQgixIQzehBBiQxi8CSHEhjB4E0KIDWHwJoQQG8LgTQghNoTBmxBCbAiDNyGE2BAGb0IIsSEM3oQQYkMYvAkhxIZUL3hbyVZNj+Q0y4kpGybW6MXUukexmkTWRiGvUdZrtOpYyX1N8usCMXBx+a+1oFjf3kbSBGlZCoWJgarZMz+M5P3Pm6SwqnRYEsqa5cSvF5HLkiecWxFVxpv/MJL3K4LgW1NFBb6FbUypY9Fa7pvLXz5bpvhaL/+9NaUJivO5/OXXpOl6ubBBYmzRr+eeP55//WxxGTF5MqmdsskuB9oApO+tIRedQQgm9Rk8GKKTj1jR4tOeuW22zJTFGubPAyd99Shb7rsRiglnlwNtegemW5IxXM9ocuEGXxCBUMw6+27pQzY1g2NWjmLyRFMzwTt3M4ZFCGg/AFy/ahIOE1ImuegM0rJVJncvo3pQC8scOuJhLHT4pWBbVO67gnRIE19blTAs5b+NPlw8kZXXGwaO+tCAFaRT+jV3wyVsbb/Jk0fVg/fioACHuwmtV71Y0muhBAf2AKa6JYWqpDi5aBCtmaAqpVZlvKllLHXE0Gp5zcTa3l6IJjPOpmaB7kLNmaX8Nz4NxzWvvF4QaYFjmGwPVQ/ebRMisuIo2sQRtAaiyKEeLjcAMYbrq1BlsJECSywhGompJpzBmOx4LKThgBdtVjNWb2ABXhwqVnaxkvvCg/ZS41En/zX6KBV/5m5pjKusIC0ClV3EJE86VQ/eAIBGH85OCIA4gjPRNTQfHUUbRAwMlzjVJUQmFw1i4fCymnFbkbg0IlvgkxjXBcbczZhJ3luO3DeKcyGprJeLBtFrlmbr5L97nAJC15SMP4mFkADXrnq4MIILcaX/M7ItXm+i76N/kpSkigJiIw2+IAKDIkKDw5gXZ3Ax5cS4uwet7hFtIaWUQoiO+xkRocEmhNQpknzXdUkTCWsC4pWCdV2H9UG/iNxXLxrWyX3V5KKY/Nc3hsmAAIecabdNiBhqBFAgQebFeFIZFBATQogNqY2yCSGEkIpg8CaEEBvC4E0IITaEwZsQQmwIgzchhNgQBm9CCLEhDN6EEGJDGLwJIcSGMHgTQogNYfAmhBAbwuBNCCE2hMGbEEJsSG0JiEvZTkzrbVrGKq9f8BjPYqgyCP3zlWXZ7DYIkRX7yuOVy8rPid6pAmfDWNJLEjZ4PnZ8Wh4HmxEOr2E+ILVpLRjWmXX00/V91bVpkG0Xk0ZYSZY3fAa41Xql5MsbtWv1XpGqUDV7pllAbCkdtsAgKt6O7W6AvL3nrPpqGyGy3fq7BW5N5Z+TBcSlJb+5/OXXJNHwpoTDilj4w0j+sjoWb+dfV8bvh5G8X9meTkgcj2htfhQ5bjEOc/nLr1mM7yKS5Q1FxsXkzKZ9MfejWLvW7xWpBjVUNvFgaM4PIIyFOEz6MzlT1j0zOdStm2Zezow+21GfySyhz45K2UvaBAGLg8MF6quCDE1tw5jdSJmXcdne6Joh81b+7w1ofeqdmtb6PqU91H+8YJ/laYGgKbNLYtzdIz3rOtSjZkuGTG+HWVvaOg6iYSPJ7+oNLLiD6GrcnHA4cS2DyaMeoNGHrhZlquaizN3Mov2o5rE8GZDGdbPPp4odGvYWswr70d5immQpWS62j0mMK1n2hnJmo3xZWq94u9siZybbQg0FbxgM8or+TFGgLQ4OY35XH7JzfgBAYE42p1gtZwiwa5gfHsEi/IikltX1AQDxabQOApOi5CUMIIzOIqUF14kxTApWdh+d/UQcRZvcRmKqByEIctvLGGpZw3xAwIAo9yNVwvzSMSa3BSymHDiraOBCMSSwhvlAD0KBWcnNOGE6qIhOnJSnQxzBhbgHQ6lZBABJLBDyAdEgOkPSe5hNiZgUwui0+SmwejC65pXf19KS39zNGFyHPZsUDiexkNKp0xTiYQy4JWv8/UzGMGuP02wYNrkz1QRjGBgrbdHRJMul9rFQ4K2XM+v7rMqX1fWKtFv0vSLVoLaCtxl5QHeGtrDc6g0siAAC0pdKOUAAkl8QEDEgNMGhZKepTJEgVo+uE35Z1ZYpmJuYMmb10pdValv64sueQqUfJXDtrde+GG4nGtT2Mkj/Wt6fUI8kbh4UAYhIP5BXlm1DxbO6NVy/KkLL7upxqEPQnKE2pblfPoAejpVRi03iwlUts7SmuHA4F50BTvhMQXAajvMOLBVxaBqRDuTpEzrhdqMPF1PLyKbGgOHi10DMkuXifTceAKzXM8uXC9cjtUttBe8HWSxCCl5SMIyhXZSzyCKUu1ybc3eROVp2nE0tIxsyfSn1tPTJ2f2IptxSDhyYlbN3iQbfjJrlh7qb4PjuooXIdgvImbfyN1QyED1BtHgRELO4j2KSXwDxmJaBViwcXsP1q05DWSMXDUqGeN3Y2eM0HjzvZ5SNJzHuHgbGin1m0sE0fa+w/FcoWS6xjyXXU/bVJF9WKdJuWe8V+ayoneC9GkVvdxgQRnGsZU06bROkgaUNfDNlLNd4EO0CsCjX5nI3Y2p23HzYD0DEws01tQ/zG9z10dyvBWgA6gEnYHUK3tKnBfQ/8KBdgFz62AINBwvaSUQrKXnImTYku7maiQtWX2IbEo8hJDiwB8Ukv/oaL1CpcLigzBCftgyMDXuBgUtJ3fp+tLesYT4QQ3tKl3EXIH0err3GzNpaslxsHzXJcik5c6F8WVmvWLtlvFfkM6PqAuLFQQGOQflFYFb9EhzqEIDBEbS6R9Am6DLqFj8mhTAGupuQnhBxtthyKvXoGhvFgjBilBkDQEsfliYyaNX1ITDn26DH0oXVkCKbbfEigDBC3U0ICYJWkpnSl3H8iPS3oRmzSLt70OmW1m2bEHF247eocH9CxnYgjGKpZLc9ODYhIDTYA0dqFEuhGUQyTehUJLvwI5IqccZR4+SiQbl8BOj3pcFK8rsaxYLbi4vq2pUJhxPXMmg/qgXC3L2McQxDupYw1NKHyLUmWTysrJ/EghjGgPK5qf1y4oJStoM0Li6asvJikuUuS5FxcuP1Gq3kyxrNRQTJlu8VqQoUEJMnisRUEOmjpTLfEqxG0XvJiYtl1bUJebwweBNCiA2pnZo3IYSQsmHwJoQQG8LgTQghNoTBmxBCbAiDNyGE2BAGb0IIsSEM3oQQYkMYvAkhxIYweBNCiA15goL39qnLCCGk2jwxP49PTMmPbeVzKQghO4AnJPNew56jyzYK3DxLIISUpurB2+hSrMDqXo4FXvZbjsfr0dCo394GzkZ5vbL7UhSTpbtM1VhiStacWR5sZA+mzbVlj4NcNGg84BUxtavEp3XTrZyjhNQuVQzeUhDqDGlOx2xqFu3V65CG7MUsrZraCNk1KYxiSXFsdpS3nr3OEmoBKfCeyTjV56kDQOImcFZ+75c6YjhjOBivYf5aRre8TnsmjiLdvbOkzGTnUb3gHQ9jQAQCc3pnngddvvriRvgSFvjKUUzuQfSqRnf5C2vOvA390Qwl2rSghVW+UEmlmMONZxvKukqpZAUNjTBY5Y3WeQED+nb178kTmzFKgffiUYdhailTey46jPThYHGBbhmuUUKqSdWCtyT/FeDaZTHT0ghfwgK/RdrHlPbCOGculcSn4egOo21ClPvUh+b4NFoHRXVaJCBiQDBnarL3UJQM5PoSjCrLTc0iACsjvZFcdFg+0C0bPJlAEuPCCKD2AwgxY7TAJNqNT6M1EyxwSKoH5GHgLM98SI1T5Zq37AW0wmyEzxW3wG9LH4q0l7uXASDoDNvagUeZJrkww1gwZb3N/dpBZnFQMNRdpUDRAyvhvRGz7X03XIrtLR5DSGlbfa8UNyWRMJnaV6PoLWJ5b/DNSAfVMeDMRtdFCKkyVQvee5wCrAIeUNoIX9wCXw6KsNiBPWWuUVx+XCbyWUQkAECM4fqqVB5pverFUkrEZHHhvZESfdbOCpaRLSm3fdIoNLUnLo1gUT4bcrh7EBJH0Gq+mNl4EO0CD4Kktqla8G7wBRGA6TR/NYrxaMraCN9Q3AKv3VVi2kiLV9rGNcXiLWXvbRUYrwsM87pp6QfSaykTVzJjhSTGC271c8IFyTAv9aGwLo5UBjnoDxqy7V2M4fqqtg/6/VPeE2AN81HeXihhbWrXSlZyCUoYxVLIJF9evYEFscRZISE1QBXt8R4MpUS4AoJmQYeURR6zNMKXsMCX2oY4irTQA4dSn1CN12XeBlhgmPcjkpKndStWbgGTYl/hBa6QbruQL842rqFdAAYGBTgGBbSpmbdieNfvtxSlG3xjmLwqYEC1vZv3T/eeBGbRVd6e7XBWkLY0tfusD9zytQ15QdUWT0it8sT8wpIQQnYSVf+RDiGEkMph8CaEEBvC4E0IITaEwZsQQmwIgzchhNgQBm9CCLEhDN6EEGJDGLwJIcSGMHgTQogNYfAmhBAbwuBNCCE2hMGbEEJsSJWCt17rZfyz1HiVKQTW1GRWWjKyc9GPJ/NnL80zjKsiYmK92q4c+XRiyricXm8nbc8koNar9jaSIxOyEfkqEz+7L//c81P5eKmFbk3ln3t+X94fyZVY6Hb+9ef35Z87e3ube0hqnluR/OUP5f8/jOT9r0XyH+Xz8rg5nn/97PH867eUhW/nX3/+uLp8/Kw8rm5N5Z9T1jMtY8mHkfzrrx1Xx+RHkePa2PswkvdbjelbU/Lyufzl13Ttq9MJKZ/aK5uUIdQ1yn+nkUAS44pSLNSzgSS4hHjYsm1S87T4NOFCo1OTCrf0IZuawTG9e3g1g7Qs+gCA5qOjQGYFuXsZnaTDg2MTUGUbhaxhfjiL9hNaw/czIgKHZbVaow8nA2YTzxrmzwMnffUA6uFyi4b2XXvrQUgl1FjwLkOoG59G6yAwKSoy3jA6p4AhRcwbmC1bElwgHrZsm2YaO5GLziBdypTU6IRLsRJBNjKlMsBep8FIdP2qiPQ969JJYkpA+oRRvrHHKWjGJiSxEDIGZ8TDWOjwq+s094twnZeThGveAhkyIRtRW8G7mFD377VFJOWYiAGhSRP4yuowPRtLggvFw+W2TWqTXDSI1kwQF32lslgPhuac8mfchDMZJ9rcTjS09CHiVtyWw0i7BctsOBcN4pxTLAi2Db4xTKZ65DO2GBAQ4NqlzDXZ67GG+YDk1symlrHknCmrxk6Inipq0IrTNiEav4DxaZP+S9JUGUW725UhW7VNap3EVBPOOUVk+8soP7T0IZvqk/6PT6P3niS1bu5fRrZfaS+I9C4Y9GhtE+fhGhSxCEWJBwBh9EIar12hZVlBt4b5QFhzYK7ewAK8OFvkdcMBLzB8AzlfEUUbIRbUVuZdhlC3QAi8GsW8RV28PEmw9TobtU1qi1w0iIXDyxtk3FYkMd6tz4hl4tPoTMl18ZY+VVh80XcQQymdwHjOX5hoAMhFhzHg9qolktzNGKAv5ViVbtxOBm5SETWWeRcR6u7VLVIgBAYCc77CplqKSYLXkC62+XLbJjXF/YyI0KDyOQMbnT0lppSSHBCYW5aX0130hh+RVIVZ8GoUvcIIFgFZdOwx9M91WB/gpdKNQxVK+xFJeUBIJVBATAghNqS2yiaEEELKgsGbEEJsCIM3IYTYEAZvQgixIQzehBBiQxi8CSHEhjB4E0KIDWHwJoQQG8LgTQghNoTBmxBCbAiDNyGE2BAGb0IIsSFVD956aWtp8auiL9tATVamrJjsMFaj6A1EkatERhyfNo0TvTBYN842kAVvSURcQJE+qPOM+1S4rdLTyc6hisFb+iJ1hvyIqM9InkV79TpEbEziUgztYz40xG+ohpqs6MXCsBxs49OqIUelpQ8nM8M6t2kPMCfbbSYysgIviXEhhnZRmh5xj+CMPuCvRrGQ0trMRYPoxKy8/VGku6eRgMfiOeB+g0ZN3Y8prQ9Z0YFzsoZPcqvGILn+tG2nD2vfHSjKwPi01oeUCNd5ulh3ItUL3vEwBkQgMKd3AXrQJT/Y3pCRF2Q7cnYV0H8xLbJtk8zYYfgiFMvOiP1IYgFB6bnclciIATQf9SJ9cw3ACtKiJuto8AURSGWQKyIsltiqiLiQPU7B4M50OXfL/ZlBNtVnTG4afehS5SK74VKOIbscaNPr+9wO7LHcGrEzVQveimNS8/xp5KJBLSMXR9EmjuBM9B8q30ijDxdTSiYlAKEewymkJCem8sz2xGNIy0FOz4YyYgBodAJXbyCH3XAJOsdpPIaQmMX9IsLiHLZHRGymwTeDkxnJ4eoYBo6VaweKhzV7T6MPF09kVR8njlKvthOpcs3bqXn+VCRzNxBGp7sJDtlOspj5u01uQ6ohtg6KBXOsBLPEnpg/y/JkxACwGy43ANSja2wU6W7F6A4EBAf2FBEWY1tExIUkppqwoJRCTmTROlWGmzU+Dcd5B5b6Pdrra165bBJEWmDZZCdSteC9xynAaHM3o6+FLyPb/8WKtyGVR+Qa4px/K90lNiIx1YQzGEO2v0K1mO5MLXvUgbTildR7LA8DcP4OFwZFLA7KGXJ3GIuDgly2k0TE0vJ+uFLOAhHxITVh0V9cnUYCSSyEdJ7VFi8CoVjJwJuLBqVAHdKy68S1sFa6gQftgVLfM2JXqha8G3xBBACEuo1X9cejwKEOU2CPR63r0mIW9wHk7mUst3E/I0KRDhdbhuwMlDpx5TLiFaRT5mlrmB8egeuwOfgrwuJtEhEbAn0fmq1KN0KJenV82vIgVVi6sS5PEntTxbKJB0MpEZOCXB6RSyRpSHW/SAAIKaew3THTuvXoOuGHUlo5c9V6C5INvvQyZAfQ4oVLvoh4PyNq46acC9KrGTWgaheyBSx0aCUR7eJ5DzC3wTUS3UXy1qterZQh9610qc5UuunOYHKseL06dy+jZf+62wKNpZsepCfGeF1nB0IBMdkRJKamgf6+ohcCi68XRPooL1oT+1H1H+kQsh00H3XgnMUPaEoSn0ancoshITaDmTchhNgQZt6EEGJDGLwJIcSGMHgTQogNYfAmhBAbwuBNCCE2hMGbEEJsCIM3IYTYEAZvQgixIQzehBBiQxi8CSHEhjB4E0KIDale8Db7JbfFci2btwNR5Az/kx3NahS9ZuNMfFp1lhp8qPI4y0WDTwRTwAAAIABJREFU0niT/aeWZnfzPN02jB5U/dg1meLV8VdsunV7BT5Wq/5Yjm2zqV5+JO5qFL1FHo+bmDLumyKJMPchMaWsn8T4Rt+rIv7Ywv4Zn+dffh9J1TNvySMpPZDerJSqHNnSHaKzj+gRMCkuW48z1ZIzi4AwiiVFjBCfhqMbBptTBD2GABJQLe+KJV7ZnNLOMpY6YprKTDddb6HPRYPSs7/VbYlovyoYgmdiqkmnNpP/xoAz+mC3GkWvewYu3b7qHa0uAVi4aT4oJLEQMk1avYEFCMBgeHP6tPg0HEIWJw0mLA+kwC2brVSRBdCpC+Bl95FUP3ibUTKQ3oCWifROTWtHcctsSpcRMNsmW2YN8+fDCMwZnw/e3C9iMjVTmBk2HkS7YLbESzQc8KLNYgvNh/1YzKwASOLCIEzShXp0hWbhUoJnfBqdmEW236ON+0AQ4zcP4qLoxcIl+TtxaQSuUrKIjiDarxoDci46A0yMGvqYuxmD68QMTm5KnyZ5OifFwmer56IzCAVmCw6eSxMZnFMOVGX2kdRA8NZMIKbTpY4xyRwPYDHlwNnUMiIBALLTr7l/WcuYIGJgmAH7iSbUYywpdId1M0VVILyhWQcAsIK0qHNJqtTD5TbZ4AELN6VG4tIIYGG2Vz2TqxmkBat1d8MlHxAS1zKYPOoB4tM45xTljB7A3nrpwJGKFfovLUhngEMdukCJJC5c9eLYAf1Sa7h+1Yn2FukAo+nUyqTEe3E/I+rcmhoNe53ygazcPhKgBoK3VjYxZgyuvfVAoxMuAJBFsJK0WMtwFMEwz6gIArPGkoJBOK0vm2yfNUfVrQ0DZ/WlOnEErfJBpBOzmttSN33hcCVlQklinLimmecb9jpLr6Krj+uvJTX4gnBdvSElOvEY0ganJqTgq3g3yxAgPw427CMBUAPBe3NI5RGpTihiUqh2f8jOQst6jawhndJkvlLNW8QkRnBBX17Q1bYNcmBl+pwfofPymWKjEy5ZpG1kBWlRMc9LfdnjhJz1S2UdALpga+qzXMuPBMztetDuHsGF+BrmzwMnTdLkxKURLIY0/2UIFZZOiu6PlHwpomg9uXsZtBnOTkr3kUjYM3jnMkgDaOs4iAasIC1Wu0NkZ1GPrhNODAjThqwzMSVgwG3Wpkn1aXRPl5+htvRhqSMmX7D04NhEBp2G6zRrmA/0ID3hRzOA5sNOLNxcQ8MBrywnHgZOyKJiIYuT/Z6ifbai+ego0ueHtQxbRSq96C/SZsVRpM+XUZJU7+6x2p8kxqeSUkY9KBjvKotPo3XQWRCgi/eRKHyh2h1YHBTgGJT+b5sQcbaclRoOol0ABgYFOAYFtDHzJiWRat4D8quyxllLH7JzUulBoW1CRNYyC/RgaC4GRyCKpdAG5QyZBt8Y2gMCxvcuY8g3gyUE0eoeUecH5pZxUSmrtPjRfl5AL0RcTC2ry3SlfBv2GYFZZFsA6M8iGn046Y4hfdRUf47HEAp4MaSf1ngQ7RjG9VWfVMJUEEd0/fUjMqffN/P++BFJ9QEAhlKz0k0FysLCKJZSFneHFesjUaHDkhCbkJhqQqfhAo8UFJmZPpkweBNCiA2xZ82bEEKecBi8CSHEhjB4E0KIDWHwJoQQG8LgTQghNoTBmxBCbAiDNyGE2BAGb0IIsSEM3oQQYkMYvAkhxIYweBNCiA2xrYBY0kFV8BhOsnMpJbs1K/F0YmJt3VJ2nSLiYL30uOj2N96Gtc5vK30vLTouJhe2xCQ8Vr+f+v0tIlgu/V0uIWneSGGo65N5H3LR4MaS4vi08T2xas/weZZjXqoOVc+8t1dATJ5YVJOOiMlUT9mJQO5mDBCAgUslvvTFhMJlbt96G1IQVbRm0rOzvVgQyg8WRfteRHQMoGK5cEAnC5a+n0mMCzG0i+b2Zfm3lZDZClMfL5T1eSUxft4hrzcL1+CwwV17JuPcwHO5hvlrGd0yRdpr9OGiamRy1qxiserB24yVgFj5IuizlE6T+8yQwQSiyMlfDvPRvXA5AKZlpSOwKTvY6IhOaoR6HOqwNrYUIvkaT4aCZeu+igmFi2+/yDbiYQxgFGf1zwdv9OHinLP0gaTCvmuiY4mtyYVR4NxsPjoK6NpXCZQrUTDaiUoSjwEnlGd/e3BsQjHNSweOi0cdJVfPRYeRPhzUnktetD0jbTWqYat68C4pIE7NIgBIyqj4NDpDSqZuVJ/lokF0KgYQcRRt4gjORP9Bniv7C0M+wHK5FOYDAgZEzSBy0QfMB3oQgm7ZUE95p5qkyqzh+lWorseSqAoxD9rLDGbFhMJFt19kG7l7GeugsMuBtlRm40yvzL6romO1b+XLhXP3MpqnM6DXtsVwXfHI3oxhUe6vkng5hoGz/RtIFFSfp4CFjrGyvKK5exnD6w09nnri02jNBA1n96XaU5O8a17NQVpjVD14lxQQYzdccpD+9bUwAEH+UtTD5VaWXMP1qyKAMDrdTXAII1gEsJj5O3m+4gEsttz/JWnU9JnC6g0s6Kc1SuaeRUWKSmoP1bs4DIyVJxnO3YzBJQe2ksGsmFC4jO2XvY0KKdluMdFxhXLhBt+MWjLRykUeDM05MSBI7Z/JONEmC8LV5ceAMxtdj9KVTc5i+PEmRqtR9J53YGmjA4qO5n65bHI4ZnHdoDaougatMpRAbIXZKrKG+QL5qsVyq1H0Uj9vfwKzyPZ7kIsG0XopiS7liyrLcAtPe5O4MCgihCboP/5Ev6fwdF8YxVLIQtW14fZLbGOvE4vXVgCYDgQPslh0e6VtbbbvSn/j03Ccj+KY3HdJLgw49CvF+9BcxrWmhgNetCmJaksfsrLWDPFp9N4znYk0HkS7EEN6FWgu4yDacMALDN9Azlc6kzZn2ubMuRiJSyNYFGHQzIUCwNKJMtpr8SIgxop8DtWl6pl3ufzpYT+gmqyTWFAHoFRjhN5yHY9aXPQpshykrBr6LETOtKGcvsqZeK3WvohGg28GESgXDHfDJYRxLqrVn+fPy2WEeAwh9SKjnF1OZHTLbsP2S22jxY/JlKkUtxpFb3cGk0c929N3g+h4C3JhFCsXJTHenSksUa3ewIJYKtEykrsZA8r5bu1y6PqbxIXB8spjahYtX5gMKAe3ctqLxxASHNhT3q58plQ9eGs17w1uX2rpQyQAuQbXY8g4GnwzunlNcHTHLJuwXk6yfweUcoq7Cb1RSNOU009hBIuBIqfLpOZo7p8FuoOYX5U+W5c6xgQsdIgYajHXgiUaDniBbSiNKdv/X98ptY16dIVEtF/Vxr9DGAEmlPrv9vS9wTeG9qsCxmclubDhrKLxINoRw/VV61v0DDcI6MpF2vQeYE4uEelvKxRiaBels9tcNGh954+utNN61atduNVNL7gVuNGHsx0xeb5u25ulSHtq7d7dBEc3ENnorKtK0GGpZzWKXiGLk5S6kqqwJl88l27R+8xunV2NoveSExcrqAmXS2IqiPTRLQZZYknVM++aYTWKXmEEizV6ikSeBOrRFarCbx4eZNWLn9vLGtLQbisk2wszb0IIsSHMvAkhxIYweBNCiA1h8CaEEBvC4E0IITaEwZsQQmwIgzchhNgQBm9CCLEhDN6EEGJDGLwJIcSGMHgTQogNqXrwNgpYyxSjbhpFd1YlcXF8uqaFpnbFPIZUdZ6lKFchiXF+FsTGVDF4S4G00/CM4Vm0V69Dj51yHx5PKsPqec3HWoDETeCszgSjiHilR37GAEtZByH2oHrBOx6WH32pf/yqB10FzwzWZ8qyFDgQ1DIq9zTG1WXlTEp+trBeYmyd0Rslwwbx8EbbgOm5v3IfiwmUc9EgWgdFACIGBEWqTMnxdpOLzqhS2Waf9hxmvYVF0nX17ehEgex8qha8E7KT0soaLQmFpWcaS7LhMDr1p72iEydTy4gEACAMHJYlwRAN9udFd1C2jAhYHBw2nSKvSZJh2UhSsMxG24hPo3UQktw4Jcsc9MHXJFCGbwZLEwIUIfJQyxolx9tOEheuenGs4HGqa5g/b2F8IcTGVNlhaaVKUkTBfrS3AKq+bDCG66ty9qQ8c9sp2YlduyBZrQGEMivAXmmxNlnbJGVdYaQfAC5lM4pkWOwxOP3SD4JlbSORCQMABoQmDCgrpzL4e7mLkkAZqkC5gCKS44GrN5Dz1aa5o9bJRWeQ7hgzvXeS4CB9YhlDfK402UFULXjvcSo+yfIEqI8NWRyrkcR42SsLmBSNlpBc1FrBRh43a7h+FWgf02fXSYy7Z+ASGbjJzqNqZZMGX1AqKXTr7vxYjWI8ClkUnEF6FVAzcaFyI8diZgWAUqJRMnmZxkLxcCJanowVAJoP+wF9mWY1inkrV18xKDneXlZvYMFgbVnDfCCG9hQVXGRnUsWyiQdDKRGugIBOd1id2jYhSqLgTBM61ZKEH5GUDw2o8IJeSCuJSBdG15BWZ0qC17S7R9u+MIolX5ltt/RhaSKD1kEBjkFlGz4cKrFKgy+IwGAPBoQmpOeWMSRvv9U9Ijcwiywlx5vjQRaLbq/uwLeCtBjGgG5sQbGGV6F7hGw3O1ODFp+GozuMtgmRxndCyI6k6j/SIYQQUjk7M/MmhJAdDjNvQgixIQzehBBiQxi8CSHEhjB4E0KIDWHwJoQQG8LgTQghNoTBmxBCbAiDNyGE2BAGb0IIsSEM3oQQYkMYvAkhxIZUPXhb2eMVD+R4wfOxZft7gQl8o/arZIsnnw16S7zeBboaRe8WPvtcNGgxBksvv50au8RUMfcqIVV9nrekpxoQ/YikFAlxEvNRWRBb7nO1CQF0RiRpXI3HlzHU4sPFVLU7tnma+5dxsdqdIDVLTdrjjZm3nG27m+BwCxgQlWX1043ZtT6b7wzpN2pliyc7C8l5mr63BiCJcVUKbRwvxT57bewEcSGjmxGfrmjc6Megunx8Gr3RqDYGdcJqZczrzzhz0en/v727C4krzfM4/quwN3PTDUNksztpSEpj09ILoixO03BiEHvNxbILSkAvQpepJjakyVUSteNVTDTmKnSghdSmmlwYEixmoWHjjoSuHMjuSEcjwyDb1er0kmTiRBmY3Oxdzl6clzr16ktMVz3W9wPS6arnVD11PP79n6fK83MDsddS6p9I5Zx1hsdv50wUe0dVpseHracuekV+KUhjd+3XicSSVv3kdT+9ff6aehJuIo+bPO+P3yQtHnuEl2WZlxS/MGFp5rjtHi+ZKTUU+97PX1NP5pLmMktazYyqIeN1Cmsp9T/o9LZd0pmVzY+blvPesZmx1XU/GTQW6aFVdXm3j2cm3ceZv6YLGg3GN3xdZKknMSuNLmk10a26+Wtqu9/pzXNJ040jukAjUnOqMD0+LD9J/mBBGvvCRG537f9S8H94Gxol2SqTFi+JjEPzBZF3haHQ0qJmEjGdyfgFvVmfjUk38773Cw+Sin++5MWkeR28pPVHs0onRnKOm3iHyh83ayn1WyNKy5vTmtQiqX0s5p1p7tex4/X6znvedCIZxOn5498LP158IHhNufOUWk5ekm4/k0RqVC2pWOedTY/fwmArmnsgS8GbVD2ayuvIpbK/FLzO2/8armRyPXZPcEYlDd7eZtbpFrhncls9bhZ1xVrVGb8zjpcb63LPLP0vQpOxuSpMjw+f/rndj+xZfbembPcsuYGzkuIdzdLaShAs7Ka6+78UFjXjd0tvmBYPM9R1T2pafXmfEmlWVzypG8GxtaibQypYsnuv3lLiQXaN3D3rk+oO1Ss9lNz0UytPV2w1HNrvHo9BwxE6Bkt4r95S4uutH4stHbGc8Qu3R6T6g1vcGntFVabHh9V1j2r8vqXBIEne09qpuJJK9DYpYVlqD24/p+l4Uj29Tcr9mXnDtHgYo+X8lGYaB3TPHsi5raHRCpYm4neWCrrbuu5RjcctRRslyVI87q3RtZ7T3NiA2hqbvJHhT0gpCLxWfEqrrZLUrTONTWprHJEUU3yTzruue1LTK/54BSn3JbWe03RjaHx8SqsEbdccMiwBwEAV/yMdAMD2UbwBwEAUbwAwEMUbAAxE8QYAA1G8AcBAFG8AMBDFGwAMRPEGAANRvAHAQBRvADAQxRsADFS54p0fGls0cNgzf03RxoHtpd54sVXbCZCFoQggLm4tpf54Sut58X8FsWn+uLWU+id2/1roeDsq3nmHL3Jf6gL36z+tFL8D8AUhG7bGM971vA9061b40q2GaTm/pFtvcKnXhduz6hrtdhN3rEubx6Yd6NbV+kkaHkNUvHgXyOmiBvRvtwbUNmRLsjVouZ10ONw1pyMPhcRGe5M5D5u7zc67MVQ7Aohdi5rRQNFEnpaOmNIrz4rOu657QHpA922Cihfv9JAVKsIbundxRGnFNO3FQZ3qn9TcmCU3m9DtzrPhrlOKy9bgRe/UsDcZdBjuNq711IB6En7UlK1xK6keErf3KAKI3dcyq+US6ToLD5JuAlVRB9WQmaW5MUDFi3d22WRSJw7sdwODlVTPJmvcbufRl03LmZ9VQlL78aOqkxtd5coPMc6LVsPekOjzmoCL0miJAOLu3ADi5ee5D+EG+3bnBBBLfgBxX9Dp9iTsgm0LBGeQlgbtFS17x1p+ALH/vNkmJnd8oCCAuDs3gLhIJ91wKPQLzB5Rmzf/mY5yGZz+zyCqXcWLd76W837X7C6TFJ6ium++uJ2HrfG8NPmcAxa1gwDi8vw17zuxbeVlonpVXfGW3Ey/VftSNpcyzAsbdjvsZ1r2Iy9bO91AY2+9buGBv+btd1B+N+N14lanjpHQvecQQJzlrvvnaT2nueOzucssz1eVbqz3OvkNLWe2OBFUVAUDiF3poWwobPvYv6vr/r9q0C/I1iXNde9XnQYUH+rToNWk5Tu2uixpcMhSdMhSe9B5N2v4TkyJ3j5F835Y/IDXniDEOKbpTPa0E3sLAcSSWjvV8OCZpMIz0bruUXXFLV05NCX19imhmKYz/hr4My03dupE+SmjChBADOxRCxPXpPPb+6jkempANw9NbrIshGpQlcsmAN5cy8mobmznU1VrKV2436nPKNxGoPMGAAPReQOAgSjeAGAgijcAGIjiDQAGongDgIEo3gBgIIo3ABiI4g0ABqJ4A4CBKN4AYKCKF+/ceLI3DFxFjQpHnOWHeLj3BZeILRJ87caI5cakZaPF8sJ7Swb0FptD3rZE8GE3ORWz7tw99YFz+MiEMx/c9sS5O71euSnBTI+nnbsvvH+/mHZip6adl47jOI8nnMNHTjuXr552Lj8uvunLaf++defuVW+7HE+cy1ef7HwOOWMmnBjHN3ZJ5Trv+aQGbSl+J3zJymad8K5LnNOR53RGA+qP08UgpLU7e23uA/VqCG4/p9XMpD6rL7GdFnVzt66iV2oOgQ3d+1qhKDbgzVSseLtJN1ZBmonkBwZ7IcT2JbXbI7qQ+ktwf9eoHz6cVE/J01jUovXUpJa9HNOtjFWQBflMy4lszmN2mWVFy0F+Zflc1bJzmE9q5nhsW9fWBsqp8Jp3vRoKosj8+KmkehqbFLVGlJaUXvlT3jYH1WBJyqyQxwdJ7i/9tpUB3dpSd7uom0P1Xii1JDVrOMiQnJJ6vUJ9oFu3/NvtTs1Y5c/2is9hQ/e+XilItAfeRMWK93v1lqSkZuZLjfA6b//r/Ic/4+xgmoWJJl3QqFbPN28+WJLmZ5WId5bohJvVVSy67MBRdVnZ58vvxkvOYe2hZkRmKnZXxYp3XfeAGxjcG+pk1lK6kpIXGBwq7POp0OmqFyS89lAzth9EjFq2nhrQTMfSFjtu18KDpOIdJQr9Wko3EkXOCueTGpQbLNxyPjfpvdwc1h/NShyn2GUVDCBu1nDGVkPcUk9jMri1fczOBgb3NsnNErY0bh/1Rtga9IOEvYBi1LanK7YSQ/6xIrnHy2RBwHDWhpYzlhpOhm5aS6nfW6Lzt2+RsuHCksoFV5ebw9MVWw0dHKfYXQbFoG3oXtzSoJ2X3A0ANajif6QDANg+gzpvAICPzhsADETxBgADUbwBwEAUbwAwEMUbAAxE8QYAA1G8AcBAFG8AMBDFGwAMRPEGAANRvAHAQBUv3kXT4+evZaOoSqZ9A7nWUwO56e7hYyd0zOQcc8TowVAVLN5uoHCQVenFT3WVGN0+Zgdj4vaI2ggfRmBRVxqbdGGlXu2hWxceSVe9Y2vu+KwupDYkhYMUbI1n+rJ5lYBBqjY9vrRmDd+JqXyEGmqLmz9562Q059aW7mxwQt2hUhHysVCOJWCOqkyP39SvomqXtPzTxi7PCntTXgBwsJxyURol2ANmqsL0eGA3uQlMy5+HYtGCRPhR6WITyyYwUhWnx5fxfFVpSQ2HyAVEOYu60nhRGl3ScNGlkf06dtziDA5GqsL0+E1+kNZS6u9NStYlfcZaJUra0L34rLoy5YOIv7tv0wTASFWZHl9MeshSdMj7n/iUVs83/wxzhLmeadlOajB0bMm6pLlEvW429gUp7+1jtm7RBMBAZFgCgIEq/kc6AIDto3gDgIEo3gBgIIo3ABiI4g0ABqJ4A4CBKN4AYCCKNwAYiOINAAaieAOAgSjeAGAginfAjWWLxlNaX0up/61mG3rPRZQbgB2qXPH20kz6N7sEbI5Qgd3tArj2UDONU1r9fFVt1ogaOrZ+1cJsoO2A7q2F7vCClPNvX09d1KAuaS5TJMUlZ7+42YwELm9mUVd2sI/WUwMEMcBYFbwk7JvarxOJJZ3YrYc70K1b5yWpWauZczt8EFszjzaCHE436q2Ij0e1umlWpzuX4cyShnc4GwB7V5Usm/hd9ID6434X63fU/n1NijZaGrTztyk2zu1csx1xfvfrdbTe15V5lR4b5B1mH7c4S+2WlL7/0OsAFzWTkNotK2fUwkST2izLfTy/Www/hzWidDA6v/POn3fua67NZZhFXWnsU8IeUVvwfQvtp2L7Lp7S/6QG1DZkK9HbpKi/RBacKW33jBCoAKdSXkw7sSMfOLHpdcdx1p27pz5wDh857dx94TjO4wnnsHffy+nTzuEjHziXHzuO4zxxLh/5wDl8atp5GWwz4czn/LuY8Hbhf29zrDcvdy5Z81fd5747fTrvNeTe5r4Wb47B6/8hd+6h176teXuPd/jqk+1/L4z3xLkc7Jd15+6p0HHweMKJTa8781cLv28vp09nb3sx7cRC+27+qvd9BKpUlS2b+IHEbjq89Bd9d9+WFFNXqyQdVINVbLtnWrYlxTsL1pDXvQ4rsLaiZUntx4+qbrOx87NKhMe2diqupBIPFjXcWrgm3vBxp9o1oplHG2pYSUrxKR3Tinfvhvda7JzkIP3+P6Tw3H/lv/Y8Zea9MNGknkSxjWrQ2kPN2Emlw/s43qlbHTH19A6owS4ei7b+aFbpxIiiof0Y75BEQDaqVJUsm2zCiuq9cvd7hS2Xe5rcdr9Tcxlb437R98KLtzR2uw4cVZclpe9f1I2EFC/6pmdM05klrfpfn7uvrL3+YPnHLjZvb7mlR1NazUwpvsNp7znWJc2F9/H5Zqn1XJAWX+oN4PYxO7tNplRoMVAdqrx4/1LHjluSPavv1uR1VUWGeUVTidlQmHG4U/U6c8nrnsNr01sYu/LM/X+vEy9elCVpv058HpNsW+ngbCF737HjlqSkZvxPOMyndE9+wXfns/5otsgvlxLz9gp6vKO5xC+wGnSgXg32iG4W/RTJfp1I2BrXqp7m3VN3qF7poWQNvmcAU1V58Zbqukc1btkatPLfzAvbrxOJKcWVVI//htOjf3CL4pClaOOkloNuulnD9iW12yNq89/4e360/NhEn/tGVm9S7WN2+Y7MK7LFlnDquic1HZf7Jlljk6K9s+7cR7PzyVm2yVFk3nKfK9HbpOjF2a3szj2qWV2N/huW7n5a7i31hrSlmeMxtUiq+7jTHTexKLWe09zYSnD81OabvzBJbQcQz19T9Ouo5hLdBevIAFDNqr7zfmvmrynam5Qa6yncAIxT2503ABiqdjtvADAYxRsADETxBgADUbwBwEAUbwAwEMUbAAxE8QYAA1G8AcBAFG8AMBDFO/BzBhADwJshgDiYzw4DiEPRWTlf2wjEXZiobMhwpZ//zRFAjNpTZUk621ElAcSt59zxayn1WyPSmK1bWwoX9m1oObPNue6qSj8/gJ2okmWTvRBAnCevIy8eFryhe3HvNdkjagtuKxIq7D1ef3wge9/EtSJBu3mvJecsJX//Fnt+tyMtvt+qEQHEqFEVS8/cQwHEha8nO7ZoIHBOWLA392LzCY/LeTxvXt7rfbnlkOPC/Vvw/Dn3ZcOVi+/XakEAMWpPlS2bmB1AXEx+NuVWw4JLjfMfz90PbrZn3aF6SUktP9+QioUcr/xJXZIK92+R532QlGSp62N36aelIyYlkpqZP6cWEzIdCSBGjaiSZZNNmBJAXHaOWwwL3pVQ4byQ4/Mf7njaRiKAGDWgyou3aQHEZWw1LPiNQoVLhBxvY826pSMmydbyc/f/3U48P0y5ihFAjBpR5cXbwADiUlpLhQX7ifPeG4Ylx21N8ZDjcvKf/5zmxqxg+56EpXH7XMFyVHUhgBi1p7Zj0AggBmCoqu+83xoCiAEYrLY7bwAwVO123gBgMIo3ABiI4g0ABqJ4A4CBKN4AYCCKNwAYiOINAAaieAOAgSjeAGAgijcAGIjiDQAGongDgIEo3gBgIIo3ABiI4g0ABqJ4A4CBKN4AYKC/qdQTv/ir9Ok3jn73R0fVnuUTiUi/PhzRN59G9HfvVno2AFDBGLR/uu7ov1ervGrn+Sga0X+ejVR6GgBQuWWT3/3RrMItmTlnAHtTxYp3tS+VFGPinAHsTbxhCQAGongDgIEo3gBgIIo3ABiI4g0ABqrq4n1jeJ++78u7sW+fXg2X/qz1jeF9uiFJiuj78Yi+eIvzA4BKqdhfWG7FmZ+kV4cikrKf0btxSHoMoIX+AAACaElEQVT4X3xmD0Btq+rirSlHP1yP6IYcnZEkRdT2jqPbabkdeFt26O2zr70x7rjvr0f0vqTL1yP65Dev9dsP9+nyEe/uPzt654oj9e3T0186WjsS0fv+bQBggKpeNpEczf1ZavOWTr44E9GBZ9JX7RE9bXML9jtnX+vLH6WTOUspjv7xrKMf/s/Rl2df65/T0lc33LHvnH2t24ro23Z35LtHIpo7+5rCDcAo1d15K7x0In1yUFqccfTFh/ukH52g0/7qhqOT49pkfTvbjUvSD3/v/vevoccBAFNUeectd+nkbyO60S41y9Fv0zt5kIi+HY9o7TfZTh0ATFb9xdtbOvmXroj0TPpK0ld/cKQjEe9TJe5yyvuv3PtKOfAL6X/TkhTRJwff+qQB4K0yoHi7Syfv/kJa/IO3Lp12NPGjdPL6Pr26vk+XDzr6smDN2tHcq4guX9+nb9sd3Q7GR3Tg1c/+EgBgV1Xset7vnH1diad9Y6+uG/H7DsAeRyUCAANRvAHAQBRvADAQxRsADETxBgADVax4RwwMYTdxzgD2pooV718fNq8SmjhnAHtTxYr3N59G9FE0YkQ3G4lIH0Uj+uZTAyYLoCZU7I90AAA7xxuWAGAgijcAGIjiDQAGongDgIEo3gBgIIo3ABiI4g0ABqJ4A4CBKN4AYCCKNwAYiOINAAaieAOAgSjeAGAgijcAGIjiDQAGongDgIEo3gBgIIo3ABiI4g0ABqJ4A4CBKN4AYCCKNwAYiOINAAaieAOAgSjeAGAgijcAGIjiDQAGongDgIEo3gBgIIo3ABiI4g0ABqJ4A4CB/h+ct3kIPYEhQAAAAABJRU5ErkJggg==;" parent="1" vertex="1">
          <mxGeometry x="310.03" y="270" width="72.35" height="110" as="geometry" />
        </mxCell>
        <mxCell id="zsDj_q2tFExIkIayEKkc-3" value="" style="shape=image;verticalLabelPosition=bottom;labelBackgroundColor=default;verticalAlign=top;aspect=fixed;imageAspect=0;image=data:image/png,iVBORw0KGgoAAAANSUhEUgAAAc4AAADwCAYAAACJ4YTZAAAgAElEQVR4nO3df1AUd4L38feYrWI3V7KVK7mQEyorErOouSV6e6OmbiTWA5pbzA/HZU88rSVhS/KELNnkZCMJ+bEgurjmlgtWTIVdUvo4XlgnWSN3Uak1SJVBnqxIPVGpGMC44IUs1lrBCrtTF+3nj+75wTADNKAM+nlVWTUz3f3tb3eP/Znvt7/dOAzDMBAREZFRmTbZFRAREZlKFJwiIiI2KDhFRERsUHCKiIjY8LVz3Z9Ndh1ERESmDMfAwIBG1YqIiIzS1xwOx2TXQUREZMpQcIqIiNjwtWnTND5IRERktNTiFBERsUHBKSIiYoOCU0RExAYFp4iIiA0aGSQiImKDglNERMQGddWKiIjYoBaniIiIDQpOERERGxScIiIiNig4RUREbFBwioiI2KDglKmvt53mYy2c7p2Asq5cpuNEC80nuui/MgHlicgNR8EpU0Jr5VxS5pj/Kk6ETLjUwFMr3KzNy2OlK5fd58e3ntM1a8hak8faNdk4K1rwja84EbkBTYHg7GF3TvCkmZJeTrPOZpOuv6uJ3VuKWfuQi7Q5weOTvsLN2uIq6k5dvj4VOX+GQwP+N210XxxPYRfpPNkVeOc730P/eIq7TnxnPTzlupeUOffiXFNMzbEefFeAK21sv38uaVVtk11FkRtK7Afn+Sb2h/6/H/BwsEXJOWkGuthd5CR9RQEv1tbT3H5xUKusv6ud5t++zrP/1Xl96nOPm1/mpBFHHPNyqliXPp7CZrC8cCOLbwNuc1LyVDYJ4bMM9HC63sOLT2Sz40SEIq63K+3UbCjn3V4f4KPvRD0VeVmkpc0lJS2XHRfiyPn7tMmupcgN5WuTXYGRnK5/k9awz3Z7G3jGlU38pNToJnalh7qn3bx4JBiVcYlpZCxzkXobMHCB1qNHae66Tq1NgFuSWF7upb18YoqLm5/Hnpa8qNNbq7NYXWO+zn90YtY5Ln1nOHEBcna0sDVzOr7zLezesZO6oy10+GaQUfg6JffFTXYtRW4osR2cV9pp3Ndjvp6fyXIaOHQKeK+BxpeyefC2Sa3dTcd3/M2Q0Exh3c43eXnZjMEzbQLfhRaqj1736t2cEt38+qw78DbuTif5lU7yJ7FKIje6mO6q9R33Un3BfJ28vIDC5UnWlAZ2vdczafW6WZ3+vTfYLZtbTEl4aFriZjp5JndcfaYiIjErhoPTR+sR/4k6iRxXGvNcbpKtqa2/baI76rJtVAQGrGwzu3qvXKS5ppjVrnutQUYuVhfX0hzxFoYIy/e1sKPAHAiTVlRPX+jsV3x0n/BS8YSbLKd/uXtxPpTHUzVNdISPMDnvYXWg/GIORRuB0v46S/3z3f86p/23R/h6aPVW8VRe+PqKqPC20RfhNoo+b0FgAM+j3ouAjw5vOaudc0mZ42THaMaP+Cbg2vKVy3QcqeWpPDfOdH/dnWStil734UU4VpH4emj1buPxVdmkBwaauViZV8z2puCIoqH7afA6/N20ADVrQgatVYbtwEtdNHrKeXxV2HbmFVNzZIRbXUZZVyDw3dtenMfKFc5AfdJcbh6v9NI63C06dr+3IgLEcnD2N/HWbutEPdNNRhqQ5iJnpjW97U3ebR9lWQNtbF+VydrKelp7rTIHLtL6222sdWVTcWKEQBhoo2JdHtuPmANhfF+GzN/fxo5/WcTSNaXUNLTTcck/wUdfewvvVhaQ5cplx6mQZe7MIsflf1PPB22R19/x+8OBHwfzHs1k3i1AXz2PO7NYvel13j0Wvr4Gajbl4nrCS/ewAfQXur1FrNzkofUSwGW+GEVgpd6THXzjqWT7cZvXMs/X8+z3nGQVbOPdY+30BUbDXqbjlFl35/dKOXTBXrEj6W97ndXOLFZvquXQqa7gSNmBi5w+Vs+O4xPce9H2OunObB59ycOhU2HbeayeioJsVm9vi3iri726XuTdp83v3o7ftnA65Nqyr7edQzWlrF5RQF2k/TmW762IADF8jbO/qZ53rdfJ/+xiHgBpZPxzEtu39wA91B1p54m0kUYMdlL9tIfG8yk8mOdmmWs2nG/grSoPzZcAuqh5rJSF71eyPMo10+baYmq6IkwYaKMiJzc47bZ0Hsx18/DfJ9F/vokjb3l4t91nBve/FJHwnzut4J/B/Q+4oKkJgLqjbZS4nAwewtFF8zv+Xwbp5LhSzJdXfPgGID49m3U/yGbJ3SnMm36Z1t/XU11WS+sA+I6U8pO3nOzLTSKi3v+koqrJ9j2K8ctyeSKlnh1dZv1q1v8vTueXUvKjbOaNdL35gpdHHyql0QqRuEQXOQXZrLgznu72Jva/YR2PLi+PPxbPvrc3suBWmxWMwHdiG6vX1NJByHrXZ3J/WhJxlzr54KM2mr85Uimzyamt5X7gdF0eFe+Zny7fVMv6OdYsCbODs1/pp584Epa5KczOZN7c2STTQ/ORWqorG+gAOmryqLjvOC+HDNwZS13/8qUv5Hs3l9lzp9N/soX9b5RTc8IHA008+xMPi+tyA701Y//eiggARkzqM956LM2YdVeaMeuuTKP6o5BJZ3Yarrusad+pNE58FWn5k8Zm/zx3pRmzvrPBeKsnbJYvTxqblwfnyd7VGWX5dOPb30k3siuOGn/4y+AiTu38XmD5b2/YY3zyZdg6vuo3Pvh5cJ5ZPz5gfOGf9qcDRsFw2/HpHsMdabk/HjXe+l1fxL32l6Nlxrf9yzy2z/hjyLQ/7tsQrOt30o1Z//BjY9dH/RHLGVbPYeOnIfvN/PcPhnvjr40PPou2UL9x8Cfpgfkzf3bU+GP49n7Vbby1ITiPq/rMoMknfh5c3+bfh04JPVaVxolBO+SksTkjbfj1hgndT3n7hu7n6PUIrdIBY9eZyPv2k11rgsfh5yfHVVfD6DPefyvKfF8eNV74jr+8DcZbIcdmXN9bETFis6v2/GHqmqzX/m5av9Du2gEP+4+P3G5aXr5t6C/mW9N5pjQ30Mo73XAyyjVTHyyrZM8mF8mhTcIrbex/zf+TPZ2S4lxSw1tIt0xncWExOf737zXR7O97u20pDzwQ3I6DYZfIuo/VB67XLc9cGrz1JsFFTrRBOU5XcF1NXVGvAfsGZvLMm1Wsmz89yhzDmJnJ1rfr2ZqTFtJCvmx1eztZu6Nl6HXK3sO8VW8dp1tzKXnGRcItYfPckkTO0z+2ehage18Tp+3XbpD+Ix5q/N2UrjJ+VRJhvddCejbr0iLv29T7sgPb6DvbGbhWPra6ziAjJ8p8tzq5/2H/myY6/GWP93srIrF5jfP0weC9m8mrXea1vQCzu9bkY3fDSI9Fy+ZhV+STWNw9Tpb73xzvGjzgJzgX69ZmDr1n9PwZmv3Xrha5yUiJsvpb7+X+wKXBek584n89nYwV/gk+Dv0+9ILtRZqP+JM0lx9kRqi/7yIdJ1p411PF9i3FrF3lxuksYHeUagziyiNnPPfE35pCTrmXtvdrKXk4PWTfXKa5Kg/XEx46BoKz+8620+h/84NMMqJ1wc5ZxAr/D5wLJ8f97NnTbfWB1+vWZ5N8PUIz1EAPp481UVdTxfaXili5Kpv0FeURfxCMq65XfPR1tdFc72F71TaeynOz0rWIRz0R5h3391ZEYu8a55V2Gv/DPwAiiZylQ8/w81xukrdXmS0qj5dDRa5h7ulMICHakxLiE/ibESvkJDXS9Z1LF4InwPmzg9ePhphOQmLwXUf3RVhothjjl2Wzjnp2A93/0cTpDWlma6T3KAetFnfcukwWD2rp9vBuWTEveNrG/ji4ObOHPhFnDOJmOsmv9JC/qZ267c/zYl27OXjqSDkrK5Noe8lFHNDfFxzQkjFndtTyIMG8VHgBoIXuXiBxmNmHdZHuwMOLnMybfR0fAtDfRk3xjwODyUY29rp215fzkzL/IK9RmIDvrcjNLvaCs60+cO8m9LB91Vy2D7tAA+8du8yD2WPodhyV2aSO+eQ9VHxcyEkxzsmKdXHs3u2DC4dp7drAvBToO9ZgtdDiWPdPoYOGLvLuEyt5ynoIQXCAzWyS5ibxN/GdbE/LpYbhZcyOMmhorG5LI6fcy+J7C8jaZA468nl2UpfnYt2dYy00ga9PWNbFwfVqbfra2J6Taw2gChnE9a0kUlMSiB84zOP3lwZb4OOoa99vC8gqtgZ53TqDjIcLeDhzNrOT5pKcMJ2O6sG3z4zHoO+tyE0uxoLTR/N/eWyP9jy06wDd2blRfz37rhD5ZHShM/jre2Y8tk4Nt8aTDGar91Qn3aRHWf9l+gJdjnEk3xEa8HEsWOYmbrcHH+3UHetiXUoCzdZoW2YW8FDocwTavWz3P7nHVcbh192Du/SuTO6tA8nuYkr2NPHiKYA23j95kXV3ziDu1mCTv/FsJxCt5dJHX6DllULyOBs4Xw98u5vo+JRxtF5Hr/+IJxCayXm1HN4UNlp6gIjfb/t1bacuMDLaxdYII199kW4xmpDvrcjNLbaucfpaOOi/d5M4FuRs4Iknovxb5wr+h2+rpzHqn5NqoDXK/Z7dR700+9e2LJ1UO3VNSSPD//p4Q5QHKQADJ/ngiP+Nm4VhPc9xi7JZZ13zO330JH2XjvKedbtD8j8Pvr7bdyY4gGne0nuHXgc73xnYnljgb6XE350eGBDD4SZao+V710ne9/c2zHcxd1z9yTOYe19wZ+8+aP/2m7Ho+Ch4rTLjvvQhP8Z8ne0RjtEY6tprPqMWgPkuFgy5nNBFx4cRlpug763IzSymgrO/wRsc3DKzgJdfLuKZoij/SovJn++fuY26pkg3WgL0sP2XnqEPBLjg5cXA017iyFk29CQ3rDgnD+X7uzybePGlCA8duHKZ5upKdluDMZLzswdfrwS4JZ2HfmSV09TAwffaOARAOvkrop+tTp/pGXxyvdJDXeW2cY9EHU5rbSm7T/REbskA3XWVVJzyv0tn4VyrlZKSxTr/Ax8u1PJsVcvQJ+dY9fcPCstYm2Xvh0wEqS43C6zXPk8Rj9dFeNDBlR7q6sf2Z7eaz0T7zplaO8OePDDQxvaKSCN2xlnXU+30DAz+qNsbeixCTNT3VuQmFkNdtZdpbGgIvAtvbQ2VQsbqdDhlnkhO/7qB07kbIiwTR9zvy8m6v4l1RbncnxhHX7uXN6rrOe2/GX9ZGYW2/4JEHAsKK8k/Yt5I7jtSytIl9awrcrPizgR8vcf57a43zRvJAVLy+LfCyOE8b6mb5Koqummi5g3rpOZysyLs+mDC3HtJxnrUoLeItfHPU+hKIs7Xw/u7K6n5bCapdAVuoJ9wfV5eXOPlRaaTOn8Ri5emmCNqL3XReKSJ073BKI/LLSAnUP8Z5LxcxsHvmQ9A6KjJw3ksm/z12SxJjKNv0AMpzOPx8sMTMBDlzly2ltaTVdYG+Gh8Pov0fdY1R+t7sOuNelrdHnKyRywNgPg70gCzC+P09o08e0sRDyX28X7vbEpy062nK5mtztNbfszjVwpYn5YAl87w1hv/ziFSSCbCrUJ265o4l4UzofECgPnQiJd/5CI5zkf3sVoqavpIToGOIdk+cd9bkZtV7ATn+QPses//Jo38zJH7hpIfyGX5S1YL7YKXxvYNzJsfPlcur/0KKtbUUrOpacjAmbi0Dex5JcLfXRyNW9Mp+VUV/f+7mLp2H1xqYfdLLUNuCYlLy+O1mmGehDPfRc7MKrZfgO4LZktj+cNZQ+uU9kP+Lf8Aq2u6AB+ttaU8Wuuvi4ut/5lHx/151y44A8xH5HVEatEAqe5KflXqGnyynenmtf/Tz6OPbaP5Evja69mxqZ4dYcvGP/A8+7a4J+zWkdR1tRwYyAs84q6/rZ4dbUPXO+rysgt4cHsR7w4AA+3UvVRAHUC+hxIgPuvHbF3WwLNHfEAXhyqLrR4EICWPff+eQnV2acR7bO3VNY38X+Sx33rSkO9ELc+e8H8Z4sjYcoAfdWaxNlKjeKK+tyI3qZjpqg294Z/0Ye4vC3XbUh4OtBR6qH4n8j2d8Qs3cqC+kvxMq4VEHAlpmeRv8dD0dtH4TgwzM9n6dhMHXtnAg/elkeAv69YZzLsvm5Kd9bS8vZGMYZM59N5UiH7vaRwLntnLgS25LE6ZHljPgoc3sufgTnJmXtt2wYKiwxx45XnyH3YyL21GSDBOJ3W+kwfznufXB1s4vCXyfYhx8/PY03SYPS/lsnx+SvD+z9tSmJeZx9a9TbRVRbghf1zimLfBQ8vBnbycm8m8xLjA5wlpmax7qZajRTb+ksttmfzyYC3PZAbrH5eYzoNzrRbyLUnk7GhgT1HIum5LYXl+JQfqNrJg2D8ia6+ucQs3sm9/GevuC/leL8ympLaBX7uThm8lTsj3VuTm5DAMw5jsSky8Nirm+G/LyGPf2Y2B60ciU0WftwDnpiby956hZOFk10ZE/GKmxSkikdWsuRdnwes0R360lYhcZwpOkRiVkL2NtpbDvJabQN+RKh7dOdLjJUXkelBwisSquOnE35ZExjLzXh7fhb6xP2ZRRCZM7IyqFZEQl+k4doa+S2fYVW3e+7nAlT4hzxgWkfFRcIrEpE7q8vKoAeJTnKzbUswzD0/wM4ZFZExu0FG1IiIi14aucYqIiNig4BQREbFBwSkiImKDglNERMQGBaeIiIgNCk4REREbFJwiIiI2KDhFRERsUHCKiIjYEDOP3Dve8n8nuwoiIiIj0iP3REREbFBXrYiIiA0KThERERsUnCIiIjYoOEVERGxQcIqIiNig4BQREbFBwSkiImKDglNERMQGBaeIiIgNCk4REREbFJwiIiI2KDhFRERsUHCKiIjYoOAUERGxQcEpIiJig4JTRETEBgWniIiIDQpOERERGxScIiIiNig4RUREbFBwioiI2KDgFBERsUHBKSIiYoOCU0RExAYFp4iIiA0KThERERsUnCIiIjYoOEVERGxQcMoNphkcDjgO7PVMdmVE5AYUQ8FpnfBC/+3tHXmx45vNecuaoWyUy1wPxzdDjp0Tdy/kWCf8cHvdkT+PWs5mG+sN1WyzzqPU47GOyzDbCIP3ma1tDi3jHHQb0OCAd8ZYXxGRYXxtsiswyPf3QF2u9aYXcu6Ajg+gdHGUBXrhFcAwrPdGlPkmwaLnoM7OAolQF0P1vyZG2Ebb+yxSGdb3p/RG35ciMlliqMUZLhHqPoAXfgE9EGitOBzgsFpUZXfAb54Ptk73bjbn7fFAmSc4f6AVFdqqdVvlhikbocV7fDPsbR5al9B15nhCWlnh6w1pcZW5zTr7PysLaSmWhdSzgwjlhNY/5POcXw2u71730PWG6vEEp5cdibxcWXOEBUPX6d+/occoyv4L3cbQdeztDe6zvW7IfRsW+9c9iu0OfCeirD90XdeiVS0iN40YDk6AxfAz62XZE/CKYbYuu2eZJ9TSz+D75eZnaxIHL/qCNzj/PWut0FhsvjcM6HZDbYRAKLWmG5/BO78aOh0g9xfBsj2twWDxrzPQagYzTJZAs3+9e2CxPzzeho5l5ueLQhY5vhk+2mPVYwd89HZwf0Sqf9kS8Hxmfv7KLPhNSDnsCG7PK+FduL3w9Npg3TJDJq3xBtfFL4b+yCgL2Sb/9pbdAY9Y9TA+gNwnIv848dftHXdwHaHHb40XPKvM8ksXR9nusP1qPGcuG+n4ha/rnrWx06UvIlNOjAenXzO88DYkWy2G5LXw0bnhF/nZv0KS9TqzPPi5v+URrYxAC+wO+E1r5BO/Z0ew7H90B8sJXWegvCPAnmAwJuXCz/zlroK8CN3QDc/D0/7wTYRHVg1T/2Z4oTwYPEnL4Psh5eTeEX17wuu2aFnIxJDW3AtvD90PmeWwOKz1F1oPFoOH6ME5aBtHIXy7w+se2KYIxy98XXl7oGOE74+ISBQxHpzN8MICK4zKgy0GI7xVN0rHN0PHvwZbRJHWl3wuuI6fRZhlMo1Y/wiaQ/aZ4R0a7BH1Qs4vzEE2hmG2/sItes5sDT99Hbo+R73dMX78ROSGEMPB2QyOJeB5DJgF339+/N1r51ohdZb5+viRodN7zsH3ZwXX/0KUct4JWbZ2LTyyLMqMmC1A1gavL/Z4Qn4MRJG6Chr83ci98M7bw9Tf2jeB8o8Eu2pTV8Erw4Ra0iz4jTfYKgyUeQ5+469jyPqHSIS6z8z5WQw/e37wdd1com9nZvnwdQsVabvD9ytEP37h66pdGyxPRMSm2ArO36wNGexhXb9ak0hgoFCg23GMt52s+ddgGQ0Rpiflmte/HA5wHIneYrnnXLAefDD0+uogifDKHnOgi8MByV7ofm6Eeu6Aj5ZY63gC7lk1TP3Dyn/6XLCrdo03ZHsitQwXQ/OCYBd4Q8jnntah6w8VGIRzBzzymPlZaegxWgLNw7RwFz03uG7hx/Mf3cHBQaPZbsfm6McvfF0jHjMRkegchhG4l0NG4/hmOPeYTryxpMcDPblDr3eKiFwDsdXiFBmLnnNwTqNkReT6UItTprYyB7ywCrpHO/BJRGR8FJwiIiI2qKtWRETEBgWniIiIDQpOERERGxScIiIiNig4RUREbFBwioiI2BAzf8j6f776ij/89x/pv/zlZFdFREQkqpi5j7PzD//NX33j69w+46/Nx4mKiIjEoJjpqu2//KVCU0REYl7MBCeg0BQRkZgXU8EpIiIS6xScIiIiNig4RUREbFBwioiI2KDgFBERsWHKBWeft4CUOXOtf9toHWbe1srhpw91kbr8uVScGF8dx66NisC2zSUl30tfpNlObIs+LaLo29XnLbCxvRepy7e7T0VEbiwx8+SgUen18tP3Mmk5u5OEa7KCGeTUnLkmJY+aq4yWGjcJmKHmrJxNV3H64HkWbqSrxk6hMbBdIiI3iKnV4rzQRWOUSaEt0Wgtq6HTzZaY+XkBdb1hrdQT2yK0bs1WV12gPHM5U0iLMVKLsNfLo6NsLQMk3JdJhn+5Sq9Z13wvfb1eKrwXh64zZNtaKwuo824LfBa6Xa2VwW1+ozNC3aNuUy0dNva5iMiNaGoF58KN7JtTinPQiR04sY2fUk7X2TN0nW0i9bWwUIoyvbXSxcEHmqzPd5KTGLJMr5dH18C+s2foOnuGli2drK5ssybWctBf3t7ZPLurDTNQG1hhzd/1eBc/DYSbJdHNr/3T90J1+PQwrbtKYXaS+aamAcrP0GW1Rk0XqcvPhb1WmU1ldKzxb3sTz3Zm0nX2DCULB++L1WfLaDl7hq6z5aSebbImpFPir1tTJgd3mdvaWplLxxZrH5Wn0NEULGfYfS4icoOaWl21wILiM3QVW62gfA9dxem0/q6WxppaUjb553KxtRdSrXeRp7fRUZNH4dkZEdfTd6wBtpSzwHqf4C4gP7+TPpKAPArd1nILM8n/HdB7lINNtTTOqQ0Wkp8JDC6/tXIuq2uiT6epFOecUmu6hy73DOgF8gsGBzvWOinj5/5gTHRTmF9ARy+k4mLr+rAuXmtf5D9+xgrfGdz/gCvQiuzzFuDcZCWjq4w+4GDoPkpcygpXV6CcSPt8QXgdRURuMFMuOE1m62hF5VwqTpxhBZC/N6xlBYNaQEOnt1Ex0dUKuT4ZSZ+3gOrZTXSdnWG2aHfZL+OaObENZ2cBXWd3Am1U5HeOuEikfS4icqObWl21USTPdlHzWvRRppGnp7MivzZqd2nCfZmwqTYQvn3endTMmR090BJnk9pUyhvDXOvr7mwi9Vtm663vWEPU67WjlriUFYSss9dLdc1sUodp9SXPdlHzO3+X80Xef89sYfZ92kmGv1v4RANmoziJVFctBwPlH+VgU0g5w+xzEZEb1dQKzkGDdeayGg8lCyHBvdO69hl5YE606QuKPaRuckUYEAMkuvn5lk5WW8s438ukJXx06yDplDSV0bFm6EAdvwXrg9N/2jnbHPgzLjPIKQ9Zp6uBFU0bA93LkSS4y9l6Nteq4/N0zHFZnxcE98XvID9S+c93kerylzP8PhcRuVHFzN/jPHn6E+6dd9dkV0NERGRYU6vFKSIiMskUnCIiIjYoOEVERGxQcIqIiNig4BQREbEhpoIzNsb3ioiIRBczwRk//a/4/OKfFJ4iIhLTYuY+zv/56iv+8N9/pP/yl5NdFRERkahiJjhFRESmgpjpqhUREZkKFJwiIiI2KDhFRERsUHCKiIjYoOAUERGxQcEpIiJig4JTRETEBgWniIiIDQpOERERGxScIiIiNig4RUREbFBwioiI2KDgFBERsUHBKSIiYoOCU0RExIavTXYF/D77An74psHxcwb6C6GxyeGARbMcvPlDB3d8c+T5p8oxtbtdInJzi5k/ZL28yqC5KyaqIiNYnOLgUJFjxPmm2jEd7XaJyM0tZrpqj5+bOifYm91oj9VUO6ZTrb4iMjliJjhjo90rozHaYzXVjulUq6+ITI6YCU4REZGpQMEpIiJig4JTRETEBgWniIiIDQrOm8iThdPo3+rgSRwcKJzY2y76vNuo653QIkVEYtLUDM4MB91V0ziQMdkVicCqW7/178Pc4WevLplGNUCuP9QicXBgq78sBx9GnW84DrIwiD8IxVUOEv8UC0NIze0KP45PFk6jO2qwO/iwxBF8PaZ9ISIydjHz5CA7npzvgD/D0iUOaIyFAPBzcGCFg7Z3rrKy0eainqvEe6JNNFj57Hi302BltfkqOWb2mcHhHgfF80OPo4OsJNg/7u0VEbk2pmBwBk+szioH1RgUgtnSWwL7cbD+dnPOo+9cZWWjgwNbHdADS+8yPzs8fxqb77KK+7PBc89C1lYHHPQHnrnM+WevQsm0QHlffGKQXG1QXTKNO/vN8j5uucp3QwIv8RsQsccydxr9zuDbXUVXzXr7ZTj4cD58t9oAHHxY5eDukHkpmQYV5jbfDWyucpAVvi2fG8RXmIHzZGHw8y8+MUg+Bd2POPhmSJmF1v4MXVf49lxrr54yKF4BTwKvAmRAer/ByrBtMI+TYc4TVm//vvpV2FAAAAV3SURBVDi/ZOixInca3X9t0HuXg7tD9o+IyFhNva5a68RaiEHL5+AM7Qq93YHz06vEF10lvgWWrgh246VjEF90lZV/O43NSQbPFZnz7ep3UFwIh3sgfb4jbB1QWGGVV2TQluTAarSxNN4sb3DIGHy3BZY+EtbVmOGg22mGVXzRVZ77BNaXRO+KPLDVAS3+9YYGrMF3iww+/rNZ/5WN8Gp1cL5dOMxuz9zB25hcbUCjQXJRcN88VOgYuq53DBKd0wLbeF00QhsOsqzu2uolDno/NYZsg3mcQvfZ0H0R7Vh98y4HLUVXFZoiMiGmXHA+Od86sQKFn8Ld3wo5mX5uBIPMY/DxN4Itqf3V5jLV34KP/1+w5VL4gQHx8Gq1QW+S2fIJXUfwmqWDpd+AO60T/NEPopyEPebJe3+8g/4qM4SenO+AT4xAAL5abfBxPJGvzWWYIb9r1K0+Bx9a11PX3w6Jfzt0G/2qS6xrr074ZnyEdTUa7P88uI3XhxHyo8WB83Zo8UQ/TsOKcqy+CNn3IiLjNcWC08H6u+BuZzAAuN0xQS0kg5Z+B1kZDrLi/WHi4MNHHOz3t3o+H31phRVmyy56y3IimC3G3neCLdloniycxkP9RqBl+cU1rJVdr54yIAmezDW7U8cWcmM/ViIidkyt4LROrP6uSX9YPOTvwgsJ0ScLI5+ECz+Fu/8u2IVbvcQB/cFp6UscJPYHr7cl/tngY8DfGhqLV08ZcFdY3fzrCGd1Xa4fYTSuX+I34Lx1XTYrKbgdodsIcHc89FojaZ+cb13rDF9XhoOHbveXdx1Z9Sj+O/g4tDchynGKaIKOlYjISKbU4KDqbwVPrH6BwSWngM/BWTXNPL9ag0kgrMXnucqub01jc5WDzWAOqLG6cfEY9FY56PV3wzYa7F8SnPfjEVsxgwfaAOwqMsuqnO9gc9U01g+qWyQGKw9C9yPBwUS7iq4Omt7SPy0wIGbXJ8FyA/UL28YvPjFI/sAIlPnF51gtzqHrOvrO1Uno1jRH1y69C/YHutqjHafB1zlD98X+fjvHSkRkbGLm73HGDwqHMbBG1SZrAMgg1YUOPq4eer1zvPqrBndW9Hm38f59G8lJDH427mM6CcK3S0Qk3JRqcYpdDu5McgDX/sdEgnsjOdd8LSIik+/GCc5Gg+TrfW0ulmU4zPs2PzdGHIwqIiKjd+MEpwzWaMTQE4JERG4cuqAjIiJig4JTRETEhpgJTse1fE6ATKjRHqupdkynWn1FZHLETHAumqWz1lQx2mM11Y7pVKuviEyOmAnON3/oYHGKQ7/6Y5jDAYtTHLz5w9EdpKlyTO1ul4jc3GLmAQgiIiJTQcy0OEVERKYCBaeIiIgNCk4REREbFJwiIiI2KDhFRERsUHCKiIjYoOAUERGxQcEpIiJig4JTRETEBgWniIiIDQpOERERGxScIiIiNig4RUREbFBwioiI2KDgFBERsUHBKSIiYoOCU0RExAYFp4iIiA0KThERERsUnCIiIjYoOEVERGxQcIqIiNig4BQREbFBwSkiImKDglNERMQGBaeIiIgNCk4REREbFJwiIiI2KDhFRERsUHCKiIjYoOAUERGxQcEpIiJig4JTRETEBgWniIiIDQpOERERGxScIiIiNig4RUREbFBwioiI2KDgFBERsUHBKSIiYoOCU0RExAYFp4iIiA0KThERERsUnCIiIjYoOEVERGxQcIqIiNig4BQREbFBwSkiImKDglNERMQGBaeIiIgNCk4REREbFJwiIiI2KDhFRERsUHCKiIjYoOAUERGxQcEpIiJig4JTRETEBgWniIiIDQpOERERGxScIiIiNig4RUREbFBwioiI2KDgFBERseH/A3QSTJn4lQhfAAAAAElFTkSuQmCC;" parent="1" vertex="1">
          <mxGeometry x="480" y="148.19" width="142" height="73.77" as="geometry" />
        </mxCell>
      </root>
    </mxGraphModel>
  </diagram>
</mxfile>
